<?xml version="1.0" encoding="UTF-8"?>
<svg width="24px" height="24px" viewBox="0 0 24 24" version="1.1" xmlns="http://www.w3.org/2000/svg" xmlns:xlink="http://www.w3.org/1999/xlink">
    <title>切片</title>
    <defs>
        <filter id="filter-1">
            <feColorMatrix in="SourceGraphic" type="matrix" values="0 0 0 0 0.333333 0 0 0 0 0.333333 0 0 0 0 0.333333 0 0 0 1.000000 0"></feColorMatrix>
        </filter>
    </defs>
    <g id="页面-1" stroke="none" stroke-width="1" fill="currentColor" fill-rule="evenodd">
        <g id="个人中心-基本信息" transform="translate(-288.000000, -728.000000)">
            <g id="编组-5" transform="translate(240.000000, 424.000000)">
                <g id="ico-/-24-/-communication-/-comment_text_outlined" transform="translate(0.000000, 288.000000)">
                    <g transform="translate(48.000000, 16.000000)">
                        <path d="M20,3 L4,3 C2.8954305,3 2,3.8954305 2,5 L2,17 C2,18.1045695 2.8954305,19 4,19 L9.09,19 C9.35233988,19.0011046 9.60373936,19.1052558 9.79,19.29 L11.28,20.78 C11.4205174,20.9206925 11.6111546,21 11.81,21 L12.19,21 C12.3888454,21 12.5794826,20.9206925 12.72,20.78 L14.21,19.29 C14.3962606,19.1052558 14.6476601,19.0011046 14.91,19 L20,19 C21.1045695,19 22,18.1045695 22,17 L22,5 C22,3.8954305 21.1045695,3 20,3 Z M20,17 L14.91,17 C14.1146186,17.0007002 13.3520694,17.3172301 12.79,17.88 L12,18.67 L11.21,17.88 C10.6479306,17.3172301 9.8853814,17.0007002 9.09,17 L4,17 L4,5 L20,5 L20,17 Z M6.5,14 L13.5,14 C13.7761424,14 14,13.7761424 14,13.5 L14,12.5 C14,12.2238576 13.7761424,12 13.5,12 L6.5,12 C6.22385763,12 6,12.2238576 6,12.5 L6,13.5 C6,13.7761424 6.22385763,14 6.5,14 Z M6.5,10 L17.5,10 C17.7761424,10 18,9.77614237 18,9.5 L18,8.5 C18,8.22385763 17.7761424,8 17.5,8 L6.5,8 C6.22385763,8 6,8.22385763 6,8.5 L6,9.5 C6,9.77614237 6.22385763,10 6.5,10 Z" id="Icon-color" fill="currentColor" fill-rule="nonzero"></path>
                    </g>
                </g>
            </g>
        </g>
    </g>
</svg>