<!-- Generated by IcoMoon.io -->
<svg version="1.1" xmlns="http://www.w3.org/2000/svg" width="24" height="24" viewBox="0 0 24 24">
<path fill="currentColor" d="M22.899 11.962c0.021 2.314-0.714 4.572-2.094 6.43-1.329 1.856-3.214 3.241-5.383 3.953-0.193 0.054-0.4 0.016-0.563-0.102-0.117-0.111-0.18-0.268-0.172-0.43v-3c0.063-0.751-0.208-1.491-0.742-2.023 0.49-0.048 0.975-0.132 1.453-0.25 0.469-0.126 0.918-0.315 1.336-0.563 0.438-0.239 0.827-0.557 1.148-0.938 0.353-0.446 0.618-0.955 0.781-1.5 0.207-0.697 0.307-1.421 0.297-2.148 0.024-1.088-0.383-2.141-1.133-2.93 0.352-0.945 0.313-1.991-0.109-2.906-0.39-0.071-0.792-0.016-1.148 0.156-0.457 0.164-0.897 0.374-1.313 0.625l-0.539 0.336c-1.789-0.5-3.68-0.5-5.469 0-0.156-0.109-0.352-0.227-0.602-0.383-0.389-0.227-0.797-0.42-1.219-0.578-0.378-0.192-0.807-0.26-1.227-0.195-0.421 0.924-0.458 1.978-0.102 2.93-0.739 0.801-1.142 1.855-1.125 2.945-0.011 0.722 0.089 1.441 0.297 2.133 0.17 0.542 0.434 1.050 0.781 1.5 0.314 0.392 0.705 0.716 1.148 0.953 0.423 0.236 0.871 0.425 1.336 0.563 0.48 0.119 0.969 0.203 1.461 0.25-0.409 0.385-0.66 0.909-0.703 1.469-0.206 0.098-0.424 0.166-0.648 0.203-0.258 0.048-0.519 0.072-0.781 0.070-0.359 0.002-0.709-0.11-1-0.32-0.324-0.235-0.591-0.539-0.781-0.891-0.172-0.294-0.407-0.548-0.687-0.742-0.209-0.16-0.448-0.277-0.703-0.344h-0.281c-0.141-0.008-0.282 0.013-0.414 0.063-0.078 0.047-0.102 0.102-0.070 0.164 0.037 0.070 0.082 0.135 0.133 0.195 0.057 0.066 0.119 0.126 0.188 0.18l0.102 0.063c0.245 0.132 0.459 0.316 0.625 0.539 0.174 0.223 0.324 0.464 0.445 0.719l0.141 0.328c0.111 0.352 0.329 0.661 0.625 0.883 0.281 0.204 0.604 0.343 0.945 0.406 0.324 0.068 0.654 0.102 0.984 0.102 0.262 0.005 0.523-0.014 0.781-0.055l0.328-0.055v2.047c0.003 0.164-0.065 0.321-0.188 0.43-0.165 0.117-0.375 0.154-0.57 0.102-2.162-0.721-4.037-2.115-5.352-3.977-1.387-1.845-2.123-4.098-2.094-6.406-0.011-1.922 0.496-3.811 1.469-5.469 0.955-1.664 2.336-3.045 4-4 1.658-0.973 3.547-1.48 5.469-1.469 1.922-0.011 3.811 0.496 5.469 1.469 1.664 0.955 3.045 2.336 4 4 0.973 1.657 1.481 3.547 1.469 5.469z"></path>
</svg>
