<?xml version="1.0" encoding="UTF-8"?>
<svg width="24px" height="24px" viewBox="0 0 24 24" version="1.1" xmlns="http://www.w3.org/2000/svg" xmlns:xlink="http://www.w3.org/1999/xlink">
    <title>lock_outlined@1x</title>
    <defs>

    </defs>
    <g id="页面-1" stroke="none" stroke-width="1" fill="currentColor" fill-rule="evenodd">
        <g id="个人中心-基本信息" transform="translate(-288.000000, -784.000000)">
            <g id="编组-5" transform="translate(240.000000, 424.000000)">
                <g id="编组" transform="translate(0.000000, 288.000000)">
                    <g id="编组-2"></g>
                    <g id="lock_outlined@1x">
                        <g transform="translate(52.000000, 74.000000)">
                            <path fill="currentColor" fill-rule="nonzero" d="M14,10 L14,18 L2,18 L2,10 L14,10 Z M8,0 C4.6862915,0 2,2.6862915 2,6 L2,8 C0.8954305,8 0,8.8954305 0,10 L0,18 C0,19.1045695 0.8954305,20 2,20 L14,20 C15.1045695,20 16,19.1045695 16,18 L16,10 C16,8.8954305 15.1045695,8 14,8 L14,6 C14,2.6862915 11.3137085,0 8,0 Z M4,8 L4,6 C4,3.790861 5.790861,2 8,2 C10.209139,2 12,3.790861 12,6 L12,8 L4,8 Z" id="Icon-color"></path>
                        </g>
                    </g>
                </g>
            </g>
        </g>
    </g>
</svg>