<?xml version="1.0" encoding="UTF-8"?>
<svg width="24px" height="24px" viewBox="0 0 24 24" version="1.1" xmlns="http://www.w3.org/2000/svg" xmlns:xlink="http://www.w3.org/1999/xlink">
    <title>safe@1x</title>
    <g id="页面-1" stroke="none" stroke-width="1" fill="currentColor" fill-rule="evenodd">
        <g id="个人中心-基本信息" transform="translate(-288.000000, -840.000000)">
            <g id="编组-5" transform="translate(240.000000, 424.000000)">
                <g id="编组" transform="translate(0.000000, 288.000000)" fill="currentColor" fill-rule="nonzero">
                    <g id="编组-2">
                        <path d="M68.12,133.120002 L64.59,129.590002 C64.2142036,129.211962 63.7030446,128.99958 63.17,129.000001 L56.83,129.000001 C56.2969554,128.99958 55.7857964,129.211962 55.41,129.590002 L51.88,133.120002 C51.31723,133.682071 51.0007002,134.44462 51,135.240002 L51,141.090002 C51.0018521,143.557295 52.1420698,145.885701 54.09,147.400002 L58.17,150.580002 C58.5218067,150.853035 58.9546749,151.000844 59.4,151.000001 L60.6,151.000001 C61.0453251,151.000844 61.4781933,150.853035 61.83,150.580002 L65.91,147.400002 C67.8579302,145.885701 68.9981479,143.557295 69,141.090002 L69,135.240002 C68.9992998,134.44462 68.6827699,133.682071 68.12,133.120002 Z M67.0001084,141.120002 C67.0079371,142.972497 66.1496991,144.722267 64.68,145.850002 L60.6,149.000002 L59.4,149.000002 L55.32,145.820002 C53.8503009,144.692267 52.9920629,142.942497 52.9998916,141.090002 L52.9998916,135.240002 C53.0011046,134.977662 53.1052558,134.726263 53.29,134.540002 L56.83,131.000002 L63.17,131.000002 L66.71,134.540002 C66.8947442,134.726263 66.9988954,134.977662 67.0001084,135.240002 L67.0001084,141.120002 Z M63.82,136.000002 C63.6255782,135.80943 63.3144218,135.80943 63.12,136.000002 L58.38,140.740002 L56.88,139.250002 C56.7892667,139.153325 56.6625859,139.098483 56.53,139.098483 C56.3974141,139.098483 56.2707333,139.153325 56.18,139.250002 L55.65,139.780002 C55.5553437,139.873885 55.5021008,140.001683 55.5021008,140.135002 C55.5021008,140.268321 55.5553437,140.396119 55.65,140.490002 L58,142.850002 C58.0907333,142.946679 58.2174141,143.00152 58.35,143.00152 C58.4825859,143.00152 58.6092667,142.946679 58.7,142.850002 L64.32,137.230002 C64.4146563,137.136119 64.4678992,137.008321 64.4678992,136.875002 C64.4678992,136.741683 64.4146563,136.613885 64.32,136.520002 L63.82,136.000002 Z" id="Icon-color"></path>
                    </g>
                </g>
            </g>
        </g>
    </g>
</svg>