<!-- Generated by IcoMoon.io -->
<svg version="1.1" xmlns="http://www.w3.org/2000/svg" width="24" height="24" viewBox="0 0 24 24">
  <defs>
    <linearGradient id="linear-gradient" x1="16.7" y1="18.8" x2="8.1" y2="5.7" gradientUnits="userSpaceOnUse">
      <stop offset="0" stop-color="#1281ff"/>
      <stop offset="1" stop-color="#5ce9ff"/>
    </linearGradient>
  </defs>
  <path fill="url(#linear-gradient)" d="M22.662 6.516c0.844 1.658 1.338 3.52 1.338 5.498s-0.029 1.135-0.116 1.687c-2.618-1.542-5.411-2.531-8.291-2.967l-1.745-4.189h8.815zM10.007 10.502c0.669-0.058 1.309-0.087 1.978-0.087s1.309 0.029 1.978 0.087l-1.105-3.462c-0.116-0.407-0.495-0.582-0.873-0.582s-0.756 0.204-0.873 0.582l-1.105 3.462zM1.338 6.516h8.815l-1.745 4.189c-2.88 0.465-5.702 1.455-8.291 2.967-0.087-0.553-0.116-1.105-0.116-1.687 0-1.978 0.465-3.84 1.338-5.498v0zM23.185 16.378c-2.095-2.211-4.538-3.695-7.098-4.48l3.375 8.116c0.32 0.727 0.698 0.815 1.164 0.349 1.105-1.135 1.978-2.473 2.56-3.956v0zM0.844 16.378c0.582 1.484 1.455 2.822 2.56 3.956 0.465 0.495 0.873 0.407 1.164-0.349l3.375-8.116c-2.56 0.785-4.975 2.269-7.098 4.48v0zM17.833 22.487l-3.52-10.996c-0.756-0.116-1.513-0.204-2.298-0.204-0.756 0-1.542 0.058-2.298 0.204l-3.52 10.996c1.716 0.96 3.724 1.513 5.818 1.513s4.102-0.553 5.818-1.513v0zM11.985 0c3.84 0 7.244 1.804 9.425 4.596-3.055 0.727-6.225 1.105-9.425 1.105s-6.371-0.378-9.425-1.105c2.211-2.793 5.615-4.596 9.425-4.596z"></path>
</svg>