<!-- Generated by IcoMoon.io -->
<svg version="1.1" xmlns="http://www.w3.org/2000/svg" width="32" height="32" viewBox="0 0 32 32">
<title>icon-gitee</title>
<path fill="#c71d23" d="M16 32c-8.837 0-16-7.163-16-16s7.163-16 16-16c8.837 0 16 7.163 16 16s-7.163 16-16 16zM24.099 14.223l-9.086 0c-0.436 0-0.79 0.354-0.79 0.79l-0.001 1.975c-0 0.436 0.354 0.79 0.79 0.79l5.532-0c0.436 0 0.79 0.354 0.79 0.79v0 0.395c0 1.309-1.061 2.37-2.37 2.37l-7.507-0c-0.436 0-0.79-0.354-0.79-0.79l-0-7.506c-0-1.309 1.061-2.37 2.37-2.37l11.060-0c0.436 0 0.79-0.353 0.79-0.79l0.002-1.975c0-0.436-0.353-0.79-0.79-0.791-0 0-0 0-0 0l-11.062 0.001c-3.273 0-5.926 2.653-5.926 5.926v11.061c0 0.436 0.354 0.79 0.79 0.79h11.654c2.945 0 5.333-2.388 5.333-5.333v-4.543c0-0.436-0.354-0.79-0.79-0.79v0z"></path>
</svg>
