<svg xmlns="http://www.w3.org/2000/svg" version="1.1" width="32px" height="32px" style="shape-rendering:geometricPrecision; text-rendering:geometricPrecision; image-rendering:optimizeQuality; fill-rule:evenodd; clip-rule:evenodd" xmlns:xlink="http://www.w3.org/1999/xlink">
<g><path style="opacity:1" fill="#fefbfb" d="M -0.5,-0.5 C 10.1667,-0.5 20.8333,-0.5 31.5,-0.5C 31.5,10.1667 31.5,20.8333 31.5,31.5C 20.8333,31.5 10.1667,31.5 -0.5,31.5C -0.5,20.8333 -0.5,10.1667 -0.5,-0.5 Z"/></g>
<g><path style="opacity:1" fill="#da283e" d="M 11.5,0.5 C 17.0011,-0.360472 21.8345,0.972861 26,4.5C 26.9859,6.9248 26.3193,8.59147 24,9.5C 22.3745,8.7113 20.8745,7.7113 19.5,6.5C 15.9062,7.42588 12.2396,7.75921 8.5,7.5C 4.07364,22.9041 9.40697,27.7374 24.5,22C 25.8333,20.6667 25.8333,19.3333 24.5,18C 21.5738,17.7822 18.7405,17.2822 16,16.5C 15.8765,13.3549 17.5432,12.0216 21,12.5C 32.312,15.04 33.4786,20.2067 24.5,28C 13.5923,32.4634 5.75899,29.2967 1,18.5C 0.118209,9.92875 3.61821,3.92875 11.5,0.5 Z"/></g>
</svg>
