<?xml version="1.0" encoding="UTF-8"?>
<svg width="100px" height="100px" viewBox="0 0 100 100">
    <g id="页面-1" stroke="none" stroke-width="1" fill="none" fill-rule="evenodd">
        <g id="loading" transform="translate(-50.000000, -50.000000)" fill="currentColor" fill-rule="nonzero">
            <g transform="translate(50.000000, 50.000000)" id="形状">
                <path d="M45.6245866,0.0631522473 L54.4429288,0.0631522473 L54.4429288,26.5181787 L45.6245866,26.5181787 L45.6245866,0.0631522473 Z M45.6245866,73.5493368 L54.4429288,73.5493368 L54.4429288,100.004363 L45.6245866,100.004363 L45.6245866,73.5493368 Z M100.004363,45.6245866 L100.004363,54.4429288 L73.5493368,54.4429288 L73.5493368,45.6245866 L100.004363,45.6245866 Z M26.5181787,45.6245866 L26.5181787,54.4429288 L0.0631522473,54.4429288 L0.0631522473,45.6245866 L26.5181787,45.6245866 Z M82.250101,11.5828465 L88.4846689,17.8144749 L69.7809652,36.5240576 L63.5434579,30.2865502 L82.250101,11.5828465 Z M30.2865502,63.5434579 L36.5240576,69.7809652 L17.8174144,88.4846689 L11.5828465,82.2530405 L30.2865502,63.5434579 Z M11.585786,17.8174144 L17.8174144,11.5828465 L36.526997,30.2865502 L30.2894897,36.5240576 L11.585786,17.8174144 Z M63.5463973,69.7809652 L69.7839047,63.5434579 L88.4876084,82.250101 L82.2559799,88.4846689 L63.5463973,69.7809652 Z"></path>
            </g>
        </g>
    </g>
</svg>