<?xml version="1.0" encoding="UTF-8"?>
<svg width="24px" height="24px" viewBox="0 0 24 24" version="1.1" xmlns="http://www.w3.org/2000/svg" xmlns:xlink="http://www.w3.org/1999/xlink">
    <title>phone@1x</title>
    <defs>
        <filter id="filter-1">
            <feColorMatrix in="SourceGraphic" type="matrix" values="0 0 0 0 0.333333 0 0 0 0 0.333333 0 0 0 0 0.333333 0 0 0 1.000000 0"></feColorMatrix>
        </filter>
    </defs>
    <g id="页面-1" stroke="none" stroke-width="1" fill="currentColor" fill-rule="evenodd">
        <g id="个人中心-账号绑定" transform="translate(-768.000000, -663.000000)">
            <g id="编组-5" transform="translate(240.000000, 424.000000)">
                <g id="编组-3" transform="translate(528.000000, 183.000000)"></g>
                <g id="whatsapp_outlined@1x" transform="translate(530.000000, 239.000000)">
                    <g transform="translate(0.000000, 2.000000)">
                        <path d="M10,0 C6.24413754,0.00116813 2.80564195,2.10677739 1.09734787,5.45165938 C-0.61094621,8.7965414 -0.30093569,12.8165831 1.9,15.86 L1,18.6 C0.93812596,18.7789076 0.98484247,18.9774528 1.12,19.11 L1.12,19.11 C1.21538829,19.2057197 1.34486642,19.259669 1.48,19.26 L1.63,19.26 L4.48,18.34 C8.0480052,20.7005494 12.722415,20.5298847 16.1087807,17.9154282 C19.4951463,15.3009718 20.8432555,10.8219278 19.4625444,6.77266962 C18.0818334,2.72341144 14.2781835,0.00100794 10,0 L10,0 Z M18,10 C18,14.418278 14.418278,18 10,18 C5.581722,18 2,14.418278 2,10 C2,5.581722 5.581722,2 10,2 C12.1217319,2 14.1565632,2.84285472 15.6568542,4.34314575 C17.1571453,5.84343678 18,7.87826808 18,10 Z M14.93,13.49 C14.5913586,14.1185049 13.9832668,14.5570681 13.28,14.68 C12.84,14.78 12.28,14.85 10.28,14.05 C8.5659319,13.2177495 7.1131645,11.9310126 6.08,10.33 C5.50634722,9.5988277 5.15877904,8.7160045 5.07994982,7.79 C5.07662287,7.00308086 5.41174634,6.25269568 6,5.73 C6.24180232,5.52388453 6.55254783,5.41673091 6.87,5.43 L7.15,5.43 C7.4,5.43 7.52,5.43 7.69,5.85 C7.86,6.27 8.38,7.55 8.44,7.67 C8.5201626,7.81285608 8.5201626,7.98714392 8.44,8.13 C8.368668,8.271979 8.2777835,8.4032566 8.17,8.52 C8.05,8.66 7.92,8.77 7.8,8.92 C7.63466142,9.0442474 7.59130287,9.2740477 7.7,9.45 C8.07177,10.0801331 8.5332739,10.6528021 9.07,11.15 C9.6541281,11.681136 10.3324618,12.0983112 11.07,12.38 C11.2719116,12.4703586 11.508308,12.4309592 11.67,12.28 C11.9071001,12.0023242 12.1243064,11.7082602 12.32,11.4 C12.4518164,11.1982233 12.7128232,11.1254837 12.93,11.23 C13.16,11.3 14.37,11.9 14.61,12.02 C14.85,12.14 15.03,12.21 15.09,12.31 C15.1577151,12.7104552 15.1019075,13.122036 14.93,13.49 Z" id="Icon-color" fill="currentColor" fill-rule="nonzero"></path>
                    </g>
                </g>
            </g>
        </g>
    </g>
</svg>