<?xml version="1.0" encoding="UTF-8"?>
<svg width="48px" height="48px" viewBox="0 0 48 48" version="1.1" xmlns="http://www.w3.org/2000/svg" xmlns:xlink="http://www.w3.org/1999/xlink">
    <title>开放原子开源基金会logo</title>
    <defs>
        <polygon id="path-1" points="0 0 48 0 48 48 0 48"></polygon>
    </defs>
    <g id="页面-1" stroke="none" stroke-width="1" fill="none" fill-rule="evenodd">
        <g id="个人中心-账号注册" transform="translate(-1064.000000, -1040.000000)">
            <g id="编组" transform="translate(560.000000, 575.000000)">
                <g id="开放原子开源基金会logo" transform="translate(504.000000, 465.000000)">
                    <mask id="mask-2" fill="white">
                        <use xlink:href="#path-1"></use>
                    </mask>
                    <g id="Clip-2"></g>
                    <path d="M24.0000508,1 C36.7025622,1 47,11.297415 47,24 C47,36.7024325 36.7025622,47 24.0000508,47 C11.2974378,47 1,36.7024325 1,24 C1,11.297415 11.2974378,1 24.0000508,1 L24.0000508,1 Z M23.9832773,4.36847816 L21.992663,4.46896678 C12.0929617,5.4744121 4.36762151,13.8350449 4.36762151,24 C4.36762151,27.3883014 5.22602089,30.576083 6.73711486,33.3578947 L7.02318021,33.8286206 L22.7184496,6.64367877 L22.7231258,6.64632187 L23.9832773,4.36847816 Z M24.0224664,4.36873231 L25.2812963,6.64398374 L25.2816521,6.64367877 L40.9769214,33.8286206 L41.2628851,33.3578947 C42.7739791,30.576083 43.6323785,27.3883014 43.6323785,24 C43.6323785,13.8350449 35.9070383,5.4744121 26.007337,4.46896678 L24.0224664,4.36873231 Z M24.0000508,11.305141 L17.6638151,22.2796979 L30.3361849,22.2796979 L24.0000508,11.305141 Z M15.6773687,25.7203021 L9.22366729,36.8984285 L10.1177994,37.8820682 C13.2264474,40.9907094 17.3728193,43.0617814 21.992663,43.5309316 L22.2796432,43.5454178 L22.2796432,25.7203021 L15.6773687,25.7203021 Z M25.7203568,25.7203021 L25.7203568,43.5454178 L26.007337,43.5309316 C30.6271298,43.0617814 34.7735526,40.9907094 37.8822006,37.8820682 L38.7763835,36.8983268 L32.3226313,25.7203021 L25.7203568,25.7203021 Z" id="Fill-1" fill="#18619D" mask="url(#mask-2)"></path>
                </g>
            </g>
        </g>
    </g>
</svg>