<svg version="1.1" xmlns="http://www.w3.org/2000/svg" width="79" height="24" viewBox="0 0 79 24">
<path fill="#479ad9" d="M17.298 11.695c-0.404 0-0.766-0.282-0.853-0.692-0.169-0.799-0.16-1.583 0.41-3.020 0.062-0.156 0.134-0.317 0.211-0.487 0.144-0.319 0.307-0.68 0.387-1 0.259-1.031-0.010-1.642-0.319-1.852-0.292-0.198-0.724-0.132-1.155 0.178-0.283 0.204-0.616 0.69-0.937 1.159-0.75 1.094-1.777 2.594-3.486 2.165-0.981-0.245-1.572-1.058-2.093-1.775-0.149-0.205-0.289-0.398-0.435-0.575-1.097-1.337-1.517-1.471-1.949-1.253-0.837 0.423-0.446 2.234-0.217 2.81 0.178 0.448-0.041 0.956-0.489 1.134s-0.956-0.041-1.134-0.489c-0.412-1.038-1.027-3.963 1.053-5.014 1.9-0.959 3.322 0.773 4.086 1.704 0.178 0.217 0.341 0.441 0.498 0.657 0.38 0.523 0.739 1.016 1.104 1.107 0.494 0.124 0.963-0.497 1.621-1.458 0.407-0.594 0.827-1.207 1.358-1.59 1.036-0.745 2.245-0.824 3.156-0.205 1.037 0.704 1.432 2.13 1.032 3.722-0.118 0.472-0.316 0.908-0.49 1.294-0.067 0.147-0.13 0.286-0.18 0.412-0.454 1.144-0.419 1.573-0.325 2.013 0.1 0.472-0.201 0.936-0.673 1.036-0.061 0.013-0.122 0.019-0.182 0.019z"></path>
<path fill="#c7000b" d="M7.367 23.597c-0.457 0-0.922-0.12-1.372-0.415-1.781-1.165-0.992-3.263-0.568-4.391 0.099-0.263 0.211-0.515 0.32-0.759 0.263-0.59 0.511-1.148 0.407-1.51-0.14-0.49-0.912-0.585-2.073-0.675-0.717-0.055-1.459-0.112-2.056-0.381-1.163-0.524-1.837-1.532-1.756-2.631 0.091-1.249 1.129-2.305 2.708-2.755 0.468-0.133 0.944-0.181 1.365-0.223 0.161-0.016 0.312-0.031 0.446-0.050 1.218-0.179 1.572-0.424 1.906-0.725 0.359-0.323 0.911-0.294 1.233 0.065s0.294 0.911-0.065 1.233c-0.607 0.546-1.291 0.93-2.821 1.155-0.166 0.024-0.341 0.042-0.527 0.061-0.348 0.035-0.742 0.074-1.060 0.164-1.023 0.291-1.417 0.83-1.444 1.203-0.026 0.352 0.248 0.693 0.732 0.911 0.318 0.143 0.905 0.189 1.473 0.232 1.322 0.102 3.133 0.242 3.618 1.936 0.278 0.972-0.13 1.891-0.491 2.701-0.103 0.231-0.2 0.449-0.281 0.664-0.609 1.619-0.515 2.049-0.111 2.314 0.784 0.513 2.157-0.73 2.542-1.217 0.299-0.378 0.849-0.442 1.227-0.143s0.442 0.849 0.143 1.227c-0.533 0.674-1.973 2.009-3.497 2.009z"></path>
<path fill="#ff7303" d="M16.437 23.721c-0.877 0-1.819-0.421-2.638-1.215-0.349-0.338-0.629-0.728-0.876-1.072-0.094-0.131-0.183-0.255-0.267-0.361-0.764-0.966-1.153-1.149-1.581-1.288-0.459-0.149-0.71-0.642-0.56-1.101s0.642-0.709 1.101-0.56c0.777 0.253 1.451 0.653 2.41 1.866 0.104 0.131 0.207 0.274 0.315 0.426 0.204 0.284 0.436 0.606 0.673 0.836 0.764 0.74 1.427 0.813 1.764 0.65 0.318-0.154 0.476-0.561 0.423-1.089-0.035-0.347-0.289-0.878-0.535-1.392-0.573-1.196-1.357-2.835-0.133-4.101 0.703-0.727 1.702-0.832 2.584-0.925 0.252-0.027 0.489-0.052 0.715-0.089 1.707-0.282 2.033-0.579 2.060-1.061 0.052-0.936-1.711-1.503-2.325-1.593-0.477-0.070-0.807-0.514-0.737-0.991s0.512-0.807 0.991-0.737c1.105 0.162 3.945 1.093 3.815 3.419-0.119 2.125-2.33 2.49-3.519 2.687-0.277 0.046-0.552 0.075-0.817 0.103-0.643 0.068-1.25 0.132-1.511 0.402-0.354 0.366-0.051 1.082 0.452 2.133 0.311 0.649 0.632 1.32 0.698 1.971 0.128 1.27-0.409 2.356-1.4 2.836-0.344 0.167-0.717 0.248-1.101 0.248z"></path>
<path fill="#c7000b" d="M11.896 2.486l-0.833-0.833c-0.092-0.092-0.092-0.24 0-0.332l0.833-0.833c0.092-0.092 0.241-0.092 0.332 0l0.834 0.833c0.092 0.092 0.092 0.24 0 0.332l-0.834 0.833c-0.092 0.092-0.24 0.092-0.332 0z"></path>
<path fill="#c7000b" d="M12.35 3.132c0 0.095-0.102 0.707-0.185 1.188-0.020 0.117-0.188 0.117-0.208 0-0.083-0.481-0.184-1.093-0.184-1.188 0-0.159 0.129-0.289 0.289-0.289s0.289 0.129 0.289 0.289z"></path>
<path fill="#ff7303" d="M2.763 18.489l-0.305 1.138c-0.034 0.125-0.162 0.2-0.288 0.166l-1.139-0.305c-0.125-0.034-0.2-0.162-0.166-0.288l0.305-1.139c0.034-0.125 0.162-0.2 0.288-0.166l1.138 0.305c0.125 0.034 0.2 0.162 0.166 0.288z"></path>
<path fill="#ff7303" d="M3.095 17.772c0.082-0.047 0.663-0.265 1.121-0.434 0.111-0.041 0.195 0.104 0.104 0.18-0.376 0.312-0.855 0.707-0.937 0.754-0.138 0.080-0.314 0.032-0.394-0.106s-0.032-0.314 0.106-0.394z"></path>
<path fill="#479ad9" d="M21.188 18.397l1.138-0.305c0.125-0.034 0.254 0.041 0.288 0.166l0.305 1.138c0.034 0.125-0.041 0.254-0.166 0.288l-1.138 0.305c-0.125 0.034-0.254-0.041-0.288-0.166l-0.305-1.138c-0.034-0.125 0.041-0.254 0.166-0.288z"></path>
<path fill="#479ad9" d="M20.401 18.467c-0.082-0.047-0.561-0.442-0.937-0.754-0.091-0.076-0.007-0.221 0.104-0.18 0.458 0.169 1.039 0.387 1.121 0.434 0.138 0.080 0.185 0.256 0.106 0.394s-0.256 0.185-0.394 0.106z"></path>
<path fill="#010604" d="M41.651 11.107h3.308c-0.242-0.686-0.897-1.167-1.655-1.167-0.589 0-1.136 0.293-1.463 0.784-0.080 0.121-0.144 0.249-0.191 0.383zM43.298 14.621c-0.408 0-0.824-0.082-1.226-0.252-0.646-0.271-1.172-0.798-1.444-1.445-0.408-0.974-0.322-2.012 0.235-2.849 0.545-0.82 1.458-1.31 2.442-1.31 1.492 0 2.744 1.117 2.912 2.598 0.026 0.235-0.049 0.469-0.206 0.645s-0.381 0.276-0.616 0.276h-3.751c0.020 0.062 0.042 0.124 0.068 0.185 0.153 0.367 0.451 0.665 0.816 0.818 0.965 0.406 1.758-0.012 2.145-0.494 0.203-0.253 0.573-0.293 0.827-0.089 0.253 0.202 0.293 0.573 0.090 0.825-0.57 0.709-1.411 1.092-2.292 1.092v0z"></path>
<path fill="#010604" d="M75.708 13.45c-0.967 0-1.755-0.787-1.755-1.754 0-0.968 0.787-1.755 1.755-1.755s1.755 0.787 1.755 1.755c0 0.967-0.787 1.754-1.755 1.754zM78.051 5.511c-0.325 0-0.588 0.263-0.588 0.588v3.255c-0.49-0.368-1.096-0.589-1.755-0.589-1.616 0-2.93 1.314-2.93 2.931 0 1.615 1.315 2.93 2.93 2.93s2.931-1.315 2.931-2.93v-5.598c0-0.325-0.263-0.588-0.588-0.588v0z"></path>
<path fill="#010604" d="M52.348 14.625c-0.325 0-0.588-0.263-0.588-0.588v-2.342c0-0.968-0.787-1.755-1.754-1.755s-1.755 0.787-1.755 1.755v2.342c0 0.325-0.263 0.588-0.588 0.588s-0.588-0.263-0.588-0.588v-2.342c0-1.615 1.315-2.931 2.931-2.931s2.93 1.315 2.93 2.931v2.342c0 0.325-0.263 0.588-0.588 0.588z"></path>
<path fill="#010604" d="M71.163 14.626c-0.325 0-0.588-0.263-0.588-0.588v-2.342c0-0.968-0.787-1.755-1.755-1.755s-1.755 0.787-1.755 1.755v2.342c0 0.325-0.263 0.588-0.588 0.588s-0.588-0.263-0.588-0.588v-2.342c0-1.617 1.315-2.931 2.931-2.931s2.93 1.314 2.93 2.931v2.342c0 0.325-0.263 0.588-0.588 0.588z"></path>
<path fill="#010604" d="M62.142 14.626c-0.325 0-0.588-0.263-0.588-0.588v-5.614l-2.747 4.558c-0.107 0.177-0.297 0.285-0.504 0.285s-0.397-0.108-0.504-0.285l-2.746-4.558v5.614c0 0.325-0.263 0.588-0.588 0.588s-0.588-0.263-0.588-0.588v-7.729c0-0.264 0.176-0.496 0.43-0.566s0.525 0.037 0.661 0.263l3.334 5.534 3.334-5.534c0.137-0.226 0.406-0.334 0.661-0.263s0.43 0.302 0.43 0.566v7.729c0 0.325-0.263 0.588-0.588 0.588z"></path>
<path fill="#010604" d="M36.59 13.449c-0.967 0-1.755-0.787-1.755-1.754 0-0.968 0.787-1.755 1.755-1.755s1.755 0.787 1.755 1.755c0 0.967-0.787 1.754-1.755 1.754zM36.59 8.764c-1.616 0-2.931 1.315-2.931 2.931v5.597c0 0.325 0.263 0.588 0.588 0.588s0.588-0.263 0.588-0.588v-3.256c0.49 0.368 1.096 0.589 1.755 0.589 1.616 0 2.931-1.315 2.931-2.93s-1.315-2.931-2.931-2.931v0z"></path>
<path fill="#010604" d="M64.275 8.764c-0.325 0-0.588 0.263-0.588 0.588v4.686c0 0.325 0.263 0.588 0.588 0.588s0.588-0.263 0.588-0.588v-4.686c0-0.325-0.263-0.588-0.588-0.588z"></path>
<path fill="#c7000b" d="M64.105 8.17l-0.607-0.606c-0.094-0.094-0.094-0.246 0-0.339l0.607-0.607c0.094-0.094 0.245-0.094 0.339 0l0.606 0.607c0.094 0.094 0.094 0.245 0 0.339l-0.606 0.606c-0.094 0.094-0.246 0.094-0.339 0z"></path>
<path fill="#010604" d="M29.876 13.45c-0.969 0-1.754-0.787-1.754-1.757 0-0.967 0.785-1.754 1.754-1.754s1.754 0.787 1.754 1.754c0 0.969-0.785 1.757-1.754 1.757zM29.876 8.764c-1.618 0-2.93 1.312-2.93 2.93 0 1.621 1.312 2.933 2.93 2.933s2.93-1.312 2.93-2.933c0-1.618-1.312-2.93-2.93-2.93v0z"></path>
</svg>
