<?xml version="1.0" encoding="UTF-8"?>
<svg width="132px" height="48px" viewBox="0 0 132 48" version="1.1" xmlns="http://www.w3.org/2000/svg" xmlns:xlink="http://www.w3.org/1999/xlink">
    <title>Logo</title>
    <defs>
        <polygon id="path-1" points="0 0 66.8181 0 66.8181 30 0 30"></polygon>
    </defs>
    <g id="ðŸ”¶ç»„ä»¶" stroke="none" stroke-width="1" fill="none" fill-rule="evenodd">
        <g id="1.å¯¼èˆªç±»/1.Menuå¯¼èˆªèœå•/1.é¡¶éƒ¨å¯¼èˆª/æœªç™»å½•" transform="translate(-252.000000, -8.000000)">
            <g id="Logo" transform="translate(252.000000, 8.000000)">
                <rect id="çŸ©å½¢" x="0" y="0" width="132" height="48"></rect>
                <g transform="translate(0.000000, 9.000000)" id="ç¼–ç»„">
                    <polygon id="Fill-2" fill="#24499C" points="0 9.486 7.5 9.486 7.5 1.9863 0 1.9863"></polygon>
                    <polygon id="Fill-3" fill="#24499C" points="49.8021 9.486 57.3021 9.486 57.3021 1.986 49.8021 1.986"></polygon>
                    <polygon id="Fill-4" fill="#24499C" points="0 29.1084 7.5 29.1084 7.5 21.6087 0 21.6087"></polygon>
                    <polygon id="Fill-5" fill="#24499C" points="49.8021 29.1084 57.3021 29.1084 57.3021 21.6084 49.8021 21.6084"></polygon>
                    <path d="M29.2536,22.5 L29.2536,15 L32.9769,15 L32.9769,7.5 L37.6443,7.5 L37.6443,0 L45.1443,0 L45.1443,7.5 L49.8114,7.5 L49.8114,15 L53.5347,15 L53.5347,22.5 L46.0347,22.5 L46.0347,15 L42.3114,15 L42.3114,7.5 L40.4769,7.5 L40.4769,15 L36.7536,15 L36.7536,22.5 L32.4102,22.5 L32.4102,30 L24.9102,30 L24.9102,22.5 L20.5668,22.5 L20.5668,15 L16.8435,15 L16.8435,7.5 L15.0087,7.5 L15.0087,15 L11.2857,15 L11.2857,22.5 L3.7857,22.5 L3.7857,15 L7.5087,15 L7.5087,7.5 L12.1761,7.5 L12.1761,0 L19.6761,0 L19.6761,7.5 L24.3435,7.5 L24.3435,15 L28.0668,15 L28.0668,22.5 L29.2536,22.5 Z" id="å½¢çŠ¶ç»“åˆ" fill="#DE0429"></path>
                    <g transform="translate(64.774200, 0.000000)">
                        <mask id="mask-2" fill="white">
                            <use xlink:href="#path-1"></use>
                        </mask>
                        <g id="Clip-17"></g>
                        <path d="M10.1484,9.837 L12.8052,9.837 L12.8052,9.2409 L10.1484,9.2409 L10.1484,9.837 Z M10.1484,10.8585 C10.137,10.9608 10.1286,11.0628 10.1232,11.1651 C10.1169,11.2674 10.1034,11.364 10.0806,11.4546 L12.8052,11.4546 L12.8052,10.8585 L10.1484,10.8585 Z M10.1997,13.8216 C10.4151,13.7988 10.5798,13.7193 10.6935,13.5834 C10.83,13.413 10.9575,13.2513 11.0763,13.098 C11.196,12.9447 11.3124,12.7719 11.4255,12.5784 L9.723,12.5784 C9.6999,12.6354 9.6771,12.6864 9.6546,12.7317 C9.6321,12.7773 9.6036,12.8283 9.5697,12.885 L10.1829,12.885 L10.1829,14.1624 C10.1829,14.4231 10.2222,14.6304 10.3017,14.7837 C10.3812,14.937 10.5747,15.0189 10.881,15.0306 C11.7093,15.0417 12.5436,15.0417 13.3839,15.0306 C13.6788,15.0189 13.8807,14.9823 13.9884,14.9199 C14.0964,14.8575 14.1786,14.7069 14.2356,14.4687 L13.8096,14.8263 L13.5714,14.4687 C13.0374,14.5254 12.5097,14.571 11.9874,14.6049 C11.4657,14.6388 10.932,14.6673 10.3872,14.6898 L10.1997,13.8216 Z M11.2212,3.8601 L11.2212,3.1107 L12.7542,3.1107 L12.7542,3.8601 L15.3081,3.8601 L15.3081,5.1543 L13.3671,5.1543 C13.719,5.4381 14.0934,5.6907 14.4909,5.9121 C14.8878,6.1335 15.3594,6.3579 15.9042,6.5847 L15.1719,7.7595 C14.2296,7.2828 13.4235,6.7548 12.7542,6.1758 L12.7542,7.5891 L11.2212,7.5891 L11.2212,6.3291 C10.7448,6.738 10.2165,7.107 9.6378,7.4361 L8.7525,6.3291 C9.1038,6.1704 9.4419,5.9916 9.7656,5.7927 C10.089,5.5941 10.3812,5.3814 10.6425,5.1543 L9.6036,5.1543 L9.6036,3.8601 L11.2212,3.8601 Z M8.3943,11.4546 C8.4171,11.364 8.4396,11.2674 8.463,11.1651 C8.4855,11.0628 8.5023,10.9608 8.514,10.8585 L5.8572,10.8585 L5.8572,11.4546 L8.3943,11.4546 Z M5.8572,9.837 L8.5308,9.837 L8.5308,9.2409 L5.8572,9.2409 L5.8572,9.837 Z M7.6794,8.1171 C7.8384,7.788 7.9632,7.4475 8.0544,7.0956 L9.5523,7.4019 C9.462,7.6746 9.3765,7.9128 9.297,8.1171 L14.4735,8.1171 L14.4735,12.5784 L12.3114,12.5784 L12.6177,12.7317 C12.3903,13.0611 12.0786,13.413 11.6811,13.7877 C11.9079,13.7763 12.1323,13.7619 12.354,13.7448 C12.5751,13.728 12.7878,13.7082 12.9921,13.6854 L12.6345,13.2258 L13.2987,12.7149 C13.5147,12.942 13.7046,13.152 13.8696,13.3446 C14.0337,13.5381 14.1843,13.7364 14.3202,13.9407 C14.3544,13.7025 14.3715,13.464 14.3715,13.2258 L15.921,13.6173 C15.8985,13.8444 15.8727,14.0715 15.8448,14.2983 C15.8157,14.5254 15.7848,14.7522 15.7509,14.9796 C15.7167,15.195 15.6573,15.3768 15.5721,15.5244 C15.4866,15.6717 15.3702,15.7911 15.2229,15.882 C15.0753,15.9726 14.8854,16.041 14.6526,16.0863 C14.4198,16.1316 14.1333,16.1658 13.7925,16.1886 C13.6563,16.1997 13.4493,16.2054 13.1712,16.2054 L12.1071,16.2054 L11.0595,16.2054 C10.7814,16.2054 10.5747,16.1997 10.4382,16.1886 C10.1085,16.1658 9.8277,16.1259 9.5952,16.0692 C9.3624,16.0125 9.1695,15.9246 9.0165,15.8055 C8.8632,15.6861 8.7525,15.5331 8.6841,15.3456 C8.616,15.1584 8.5818,14.9226 8.5818,14.6388 L8.5818,14.0601 L8.565,14.0769 C7.5204,14.9511 5.8119,15.7629 3.4398,16.512 L2.6736,14.9625 C3.8877,14.6331 4.9125,14.2755 5.7468,13.8897 C6.5814,13.5039 7.2312,13.0668 7.6968,12.5784 L4.1886,12.5784 L4.1886,8.1171 L7.6794,8.1171 Z M5.8062,3.8601 L5.8062,3.1107 L7.3392,3.1107 L7.3392,3.8601 L9.246,3.8601 L9.246,5.1543 L8.0031,5.1543 C8.0259,5.1771 8.0427,5.1882 8.0544,5.1882 C8.2695,5.3133 8.4597,5.4267 8.6247,5.529 C8.7888,5.631 8.9283,5.7219 9.0417,5.8014 L8.2074,6.8229 C8.1165,6.7437 8.0394,6.6756 7.9773,6.6186 C7.9152,6.5622 7.8525,6.5139 7.7904,6.474 C7.7277,6.4344 7.665,6.3918 7.6029,6.3462 C7.5402,6.3009 7.458,6.2439 7.356,6.1758 L7.3392,6.1758 L7.3392,7.5891 L5.8062,7.5891 L5.8062,6.4656 C5.5449,6.681 5.2755,6.8853 4.9974,7.0785 C4.7193,7.2717 4.4154,7.4532 4.0863,7.6236 L3.3033,6.5847 L3.3033,7.1805 C3.2916,8.2593 3.2607,9.2214 3.2094,10.0668 C3.1584,10.9125 3.0762,11.6592 2.9625,12.306 C2.8605,12.9531 2.6961,13.6089 2.469,14.2728 C2.2416,14.937 1.9521,15.6264 1.6002,16.3419 L0,15.4902 C0.6012,14.2755 1.0098,13.1121 1.2258,11.9994 C1.4412,10.887 1.5492,9.309 1.5492,7.2657 L1.5492,1.323 L7.7136,1.323 C7.5888,0.9255 7.4808,0.6246 7.3902,0.4203 L9.348,0.2331 C9.405,0.3693 9.462,0.5283 9.5187,0.7101 C9.5751,0.8916 9.6321,1.0959 9.6888,1.323 L15.5979,1.323 L15.5979,2.8215 L3.3033,2.8215 L3.3033,6.4143 C4.0296,6.0852 4.6824,5.6649 5.2617,5.1543 L3.8142,5.1543 L3.8142,3.8601 L5.8062,3.8601 Z" id="Fill-16" fill="#24499C" mask="url(#mask-2)"></path>
                        <path d="M19.27557,1.49331 C21.22827,1.44801 23.27127,1.32861 25.40577,1.13541 C27.56277,0.94281 29.41317,0.72141 30.95727,0.47151 L31.36587,2.41281 C30.61647,2.52621 29.81607,2.63151 28.96437,2.72781 C28.11357,2.82441 27.20517,2.91801 26.24037,3.00861 C25.27497,3.08841 24.36987,3.15921 23.52417,3.22161 C22.67847,3.28401 21.88107,3.33801 21.13197,3.38331 L20.68887,6.87411 L24.52047,6.87411 L24.52047,3.62181 L26.56377,3.62181 L26.56377,6.87411 L32.21727,6.87411 L32.21727,8.76441 L26.56377,8.76441 L26.56377,13.68531 C26.56377,14.12811 26.51847,14.49441 26.42727,14.78361 C26.33667,15.07341 26.19777,15.30561 26.01027,15.48201 C25.82277,15.65781 25.58487,15.79101 25.29507,15.88221 C25.00557,15.97281 24.65637,16.03551 24.24777,16.06941 C23.85027,16.11471 23.50737,16.14291 23.21757,16.15431 C22.92807,16.16571 22.63587,16.17141 22.34097,16.17141 L21.91497,14.07681 C22.22127,14.09991 22.48827,14.11971 22.71537,14.13681 C22.94217,14.15361 23.20917,14.16231 23.51577,14.16231 C23.74257,14.16231 23.92137,14.15091 24.05187,14.12811 C24.18237,14.10531 24.28197,14.06601 24.34977,14.00901 C24.41847,13.95201 24.46377,13.86711 24.48627,13.75371 C24.50877,13.64001 24.52047,13.48701 24.52047,13.29351 L24.52047,8.76441 L18.50937,8.76441 L19.27557,1.49331 Z" id="Fill-18" fill="#24499C" mask="url(#mask-2)"></path>
                        <path d="M46.19694,0.31821 L46.19694,5.15421 L49.39854,5.15421 L49.39854,7.04451 L46.19694,7.04451 L46.19694,13.60011 L49.89204,13.60011 L49.89204,15.54141 L40.04994,15.54141 L40.04994,13.60011 L44.17044,13.60011 L44.17044,7.04451 L41.14014,7.04451 L41.14014,5.15421 L44.17044,5.15421 L44.17044,0.31821 L46.19694,0.31821 Z M38.92614,9.24081 L38.92614,16.08651 L37.00194,16.08651 L37.00194,10.29681 L37.00194,5.20521 L34.95864,5.20521 L34.95864,3.33231 L37.13844,3.33231 C37.08144,3.09381 37.01634,2.84151 36.94254,2.57451 C36.86814,2.30811 36.80334,2.08911 36.74664,1.91871 C36.57654,1.31751 36.42324,0.86331 36.28674,0.55671 L38.04054,0.11391 C38.10894,0.28431 38.18274,0.48291 38.26224,0.71001 C38.34114,0.93711 38.42634,1.19811 38.51754,1.49331 C38.58534,1.72041 38.67084,2.01831 38.77284,2.38731 C38.87514,2.75601 38.96034,3.07131 39.02844,3.33231 L40.64604,3.33231 L40.64604,5.18811 L38.92614,5.18811 L38.92614,9.24081 Z" id="Fill-19" fill="#24499C" mask="url(#mask-2)"></path>
                        <path d="M54.74523,11.81229 C55.49463,11.25609 56.23233,10.65999 56.95893,10.02429 C57.68523,9.38859 58.40043,8.71899 59.10453,8.01489 C58.42353,7.33389 57.76803,6.69519 57.13743,6.09909 C56.50773,5.50329 55.95423,4.99539 55.47783,4.57509 L56.72043,3.11079 C57.20853,3.50829 57.78153,4.00779 58.44033,4.60959 C59.09853,5.21109 59.78583,5.85819 60.50103,6.55059 C61.02273,5.97159 61.52793,5.38419 62.01663,4.78839 C62.50413,4.19199 62.96973,3.58749 63.41253,2.97459 L65.04723,4.18359 C64.58163,4.81959 64.09083,5.45229 63.57423,6.08229 C63.05763,6.71229 62.51583,7.34529 61.94793,7.98099 C62.69733,8.73009 63.40983,9.46809 64.08513,10.19469 C64.76073,10.92129 65.33673,11.57379 65.81373,12.15279 L64.17873,13.54899 C63.71313,12.97029 63.16563,12.33159 62.53563,11.63349 C61.90533,10.93509 61.23873,10.21749 60.53463,9.47949 C59.81943,10.20579 59.09013,10.90419 58.34673,11.57379 C57.60303,12.24369 56.85693,12.86799 56.10753,13.44699 L54.74523,11.81229 Z M66.49473,1.03329 L66.49473,2.92359 L54.72843,2.92359 L54.72843,13.70259 L66.81813,13.70259 L66.81813,15.64359 L52.71873,15.64359 L52.71873,1.03329 L66.49473,1.03329 Z" id="Fill-20" fill="#24499C" mask="url(#mask-2)"></path>
                        <polygon id="Fill-21" fill="#24499C" mask="url(#mask-2)" points="10.67145 29.85072 9.15495 29.85072 9.15495 22.51992 6.62655 29.85072 5.02935 29.85072 2.51325 22.55442 2.51325 29.85072 1.14585 29.85072 1.14585 20.47452 3.24855 20.47452 5.87985 28.17312 8.51145 20.47452 10.67145 20.47452"></polygon>
                        <path d="M16.33608,28.74774 C16.85688,28.74774 17.32038,28.59804 17.72688,28.29954 C18.13278,28.00074 18.44658,27.57954 18.66888,27.03564 C18.89118,26.49174 19.00218,25.86744 19.00218,25.16274 C19.00218,24.45804 18.89118,23.83374 18.66888,23.28984 C18.44658,22.74594 18.13278,22.32444 17.72688,22.02564 C17.32038,21.72684 16.85688,21.57744 16.33608,21.57744 C15.81528,21.57744 15.35388,21.72684 14.95158,22.02564 C14.54928,22.32444 14.23698,22.74594 14.01528,23.28984 C13.79298,23.83374 13.68198,24.45804 13.68198,25.16274 C13.68198,25.86744 13.79298,26.49174 14.01528,27.03564 C14.23698,27.57954 14.54928,28.00074 14.95158,28.29954 C15.35388,28.59804 15.81528,28.74774 16.33608,28.74774 M16.33608,29.99994 C15.52398,29.99994 14.80218,29.79504 14.17008,29.38554 C13.53828,28.97574 13.04598,28.40484 12.69348,27.67314 C12.34128,26.94174 12.16548,26.10474 12.16548,25.16274 C12.16548,24.22044 12.34128,23.38344 12.69348,22.65204 C13.04598,21.92064 13.53828,21.34974 14.17008,20.93994 C14.80218,20.53014 15.52398,20.32494 16.33608,20.32494 C17.15598,20.32494 17.88168,20.52834 18.51348,20.93394 C19.14558,21.34044 19.63788,21.91104 19.99008,22.64634 C20.34258,23.38164 20.51898,24.22044 20.51898,25.16274 C20.51898,26.10474 20.34258,26.94354 19.99008,27.67914 C19.63788,28.41444 19.14558,28.98534 18.51348,29.39094 C17.88168,29.79684 17.15598,29.99994 16.33608,29.99994" id="Fill-22" fill="#24499C" mask="url(#mask-2)"></path>
                        <path d="M28.06821,25.16265 C28.06821,24.12105 27.81321,23.29365 27.30411,22.68075 C26.79441,22.06785 26.08041,21.76125 25.16091,21.76125 L23.52951,21.76125 L23.52951,28.57515 L25.16091,28.57515 C26.08041,28.57515 26.79441,28.26705 27.30411,27.65025 C27.81321,27.03375 28.06821,26.20455 28.06821,25.16265 M29.58471,25.16265 C29.58471,26.10465 29.41641,26.92845 29.07921,27.63315 C28.74171,28.33815 28.25931,28.88355 27.63111,29.27025 C27.00291,29.65725 26.26791,29.85075 25.42521,29.85075 L22.02381,29.85075 L22.02381,20.47455 L25.42521,20.47455 C26.26791,20.47455 27.00291,20.66805 27.63111,21.05505 C28.25931,21.44175 28.74171,21.98925 29.07921,22.69785 C29.41641,23.40645 29.58471,24.22815 29.58471,25.16265" id="Fill-23" fill="#24499C" mask="url(#mask-2)"></path>
                        <polygon id="Fill-24" fill="#24499C" mask="url(#mask-2)" points="32.62962 21.76134 32.62962 24.28914 36.46752 24.28914 36.46752 25.57644 32.62962 25.57644 32.62962 28.57524 36.73122 28.57524 36.73122 29.85084 31.12422 29.85084 31.12422 20.47464 36.73122 20.47464 36.73122 21.76134"></polygon>
                        <polygon id="Fill-25" fill="#24499C" mask="url(#mask-2)" points="43.84407 28.57527 43.84407 29.85057 38.37477 29.85057 38.37477 20.47467 39.87987 20.47467 39.87987 28.57527"></polygon>
                        <polygon id="Fill-26" fill="#24499C" mask="url(#mask-2)" points="46.71669 21.76134 46.71669 24.28914 50.55459 24.28914 50.55459 25.57644 46.71669 25.57644 46.71669 28.57524 50.81829 28.57524 50.81829 29.85084 45.21129 29.85084 45.21129 20.47464 50.81829 20.47464 50.81829 21.76134"></polygon>
                        <path d="M53.96691,24.9099 L55.78251,24.9099 C56.29551,24.9099 56.68851,24.7701 56.96001,24.4905 C57.23181,24.2109 57.36831,23.8107 57.36831,23.2899 C57.36831,22.7766 57.23181,22.38 56.96001,22.1004 C56.68851,21.8208 56.29551,21.681 55.78251,21.681 L53.96691,21.681 L53.96691,24.9099 Z M55.16181,26.1162 L53.96691,26.1162 L53.96691,29.8506 L52.46181,29.8506 L52.46181,20.4747 L56.10441,20.4747 C56.66301,20.4747 57.15171,20.5914 57.56931,20.8251 C57.98631,21.0588 58.31031,21.3879 58.54041,21.8133 C58.76991,22.2381 58.88481,22.7307 58.88481,23.2899 C58.88481,24.0252 58.69521,24.6378 58.31601,25.1283 C57.93681,25.6185 57.41781,25.9287 56.75901,26.0589 L59.47101,29.8506 L57.64401,29.8506 L55.16181,26.1162 Z" id="Fill-27" fill="#24499C" mask="url(#mask-2)"></path>
                        <path d="M60.39036,22.96806 C60.39036,22.44696 60.51456,21.98766 60.76386,21.58926 C61.01226,21.19086 61.37466,20.88066 61.84956,20.65836 C62.32446,20.43606 62.87946,20.32506 63.51576,20.32506 C64.31196,20.32506 64.97496,20.48976 65.50356,20.81916 C66.03186,21.14856 66.39576,21.61956 66.59526,22.23276 L65.37726,22.80726 C65.23146,22.41636 65.01276,22.12146 64.72206,21.92226 C64.43106,21.72306 64.04016,21.62376 63.54996,21.62376 C63.00606,21.62376 62.59626,21.73476 62.32026,21.95676 C62.04486,22.17906 61.90686,22.49676 61.90686,22.91046 C61.90686,23.17866 61.96596,23.39886 62.08506,23.57136 C62.20356,23.74356 62.39736,23.88906 62.66526,24.00786 C62.93346,24.12666 63.30456,24.23196 63.78006,24.32376 C64.83696,24.52326 65.59896,24.85236 66.06666,25.31196 C66.53376,25.77156 66.76746,26.40366 66.76746,27.20796 C66.76746,27.74436 66.62736,28.22496 66.34776,28.65006 C66.06816,29.07516 65.67576,29.40636 65.17026,29.64396 C64.66476,29.88126 64.09026,30.00006 63.44676,30.00006 C62.56566,30.00006 61.83006,29.81616 61.24026,29.44866 C60.65046,29.08086 60.25236,28.55646 60.04536,27.87426 L61.27506,27.29976 C61.42026,27.75966 61.67736,28.10826 62.04486,28.34556 C62.41236,28.58286 62.87586,28.70166 63.43506,28.70166 C64.01706,28.70166 64.46526,28.57536 64.77966,28.32246 C65.09346,28.06986 65.25096,27.70986 65.25096,27.24246 C65.25096,26.81346 65.09556,26.47446 64.78536,26.22546 C64.47516,25.97676 63.93696,25.77576 63.17076,25.62216 C62.21346,25.43826 61.51056,25.13016 61.06236,24.69726 C60.61416,24.26466 60.39036,23.68806 60.39036,22.96806" id="Fill-28" fill="#24499C" mask="url(#mask-2)"></path>
                        <polygon id="Fill-29" fill="#24499C" mask="url(#mask-2)" points="0.8982 2.5521 2.5239 2.5521 2.5239 0.9264 0.8982 0.9264"></polygon>
                        <polygon id="Fill-30" fill="#24499C" mask="url(#mask-2)" points="15.1842 3.3144 16.8099 3.3144 16.8099 1.6887 15.1842 1.6887"></polygon>
                        <polygon id="Fill-31" fill="#24499C" mask="url(#mask-2)" points="26.0778 7.3041 27.7035 7.3041 27.7035 5.6784 26.0778 5.6784"></polygon>
                        <polygon id="Fill-32" fill="#24499C" mask="url(#mask-2)" points="48.7017 14.7759 50.3274 14.7759 50.3274 13.1502 48.7017 13.1502"></polygon>
                        <polygon id="Fill-33" fill="#24499C" mask="url(#mask-2)" points="64.8702 1.6257 66.4959 1.6257 66.4959 0 64.8702 0"></polygon>
                        <polygon id="Fill-34" fill="#24499C" mask="url(#mask-2)" points="62.1693 2.3319 63.795 2.3319 63.795 0.7062 62.1693 0.7062"></polygon>
                        <polygon id="Fill-35" fill="#24499C" mask="url(#mask-2)" points="13.1445 9.4062 14.7702 9.4062 14.7702 7.7805 13.1445 7.7805"></polygon>
                        <polygon id="Fill-36" fill="#24499C" mask="url(#mask-2)" points="38.886 4.8921 40.3137 4.8921 40.3137 3.4644 38.886 3.4644"></polygon>
                        <polygon id="Fill-37" fill="#24499C" mask="url(#mask-2)" points="37.4604 6.3198 38.8881 6.3198 38.8881 4.8921 37.4604 4.8921"></polygon>
                        <polygon id="Fill-38" fill="#24499C" mask="url(#mask-2)" points="36.033 7.7475 37.4607 7.7475 37.4607 6.3198 36.033 6.3198"></polygon>
                        <polygon id="Fill-39" fill="#24499C" mask="url(#mask-2)" points="34.6059 9.1743 36.0336 9.1743 36.0336 7.7466 34.6059 7.7466"></polygon>
                        <polygon id="Fill-40" fill="#24499C" mask="url(#mask-2)" points="33.1776 10.6011 34.6053 10.6011 34.6053 9.1734 33.1776 9.1734"></polygon>
                        <polygon id="Fill-41" fill="#24499C" mask="url(#mask-2)" points="38.9145 9.1743 40.3422 9.1743 40.3422 7.7466 38.9145 7.7466"></polygon>
                        <polygon id="Fill-42" fill="#24499C" mask="url(#mask-2)" points="40.3428 10.6011 41.7705 10.6011 41.7705 9.1734 40.3428 9.1734"></polygon>
                        <polygon id="Fill-43" fill="#24499C" mask="url(#mask-2)" points="27.4566 12.0108 29.2215 12.0108 29.2215 10.2459 27.4566 10.2459"></polygon>
                        <polygon id="Fill-44" fill="#24499C" mask="url(#mask-2)" points="29.2209 13.7751 30.9858 13.7751 30.9858 12.0102 29.2209 12.0102"></polygon>
                        <polygon id="Fill-45" fill="#24499C" mask="url(#mask-2)" points="30.987 15.5391 32.7519 15.5391 32.7519 13.7742 30.987 13.7742"></polygon>
                        <polyline id="Fill-46" fill="#24499C" mask="url(#mask-2)" points="23.22336 9.51777 23.22336 11.28267 21.45846 11.28267 21.45846 9.51777"></polyline>
                        <polygon id="Fill-47" fill="#24499C" mask="url(#mask-2)" points="19.6941 13.047 21.459 13.047 21.459 11.2821 19.6941 11.2821"></polygon>
                        <polygon id="Fill-48" fill="#24499C" mask="url(#mask-2)" points="17.9283 14.8107 19.6932 14.8107 19.6932 13.0458 17.9283 13.0458"></polygon>
                    </g>
                </g>
            </g>
        </g>
    </g>
</svg>