<?xml version="1.0" encoding="UTF-8"?>
<svg width="60px" height="60px" viewBox="0 0 60 60" version="1.1" xmlns="http://www.w3.org/2000/svg" xmlns:xlink="http://www.w3.org/1999/xlink">
    <title>ç¼–ç»„ 6</title>
    <g id="ðŸ”¶ç»„ä»¶" stroke="none" stroke-width="1" fill="none" fill-rule="evenodd">
        <g id="ç¼–ç»„-7">
            <rect id="çŸ©å½¢" x="0" y="0" width="59.9978011" height="60"></rect>
            <g id="ç¼–ç»„" transform="translate(0.000000, 14.659686)">
                <polygon id="Fill-2" fill="#24499C" points="0 9.93298429 7.85311533 9.93298429 7.85311533 2.07989529 0 2.07989529"></polygon>
                <polygon id="Fill-3" fill="#24499C" points="52.1468847 9.93298429 60 9.93298429 60 2.07958115 52.1468847 2.07958115"></polygon>
                <polygon id="Fill-4" fill="#24499C" points="0 30.48 7.85311533 30.48 7.85311533 22.626911 0 22.626911"></polygon>
                <polygon id="Fill-5" fill="#24499C" points="52.1468847 30.48 60 30.48 60 22.6265969 52.1468847 22.6265969"></polygon>
                <path d="M30.6309193,23.5602094 L30.6309193,15.7068063 L34.5295199,15.7068063 L34.5295199,7.85340314 L39.4166706,7.85340314 L39.4166706,0 L47.2697859,0 L47.2697859,7.85340314 L52.1566225,7.85340314 L52.1566225,15.7068063 L56.0552231,15.7068063 L56.0552231,23.5602094 L48.2021078,23.5602094 L48.2021078,15.7068063 L44.3035072,15.7068063 L44.3035072,7.85340314 L42.3826352,7.85340314 L42.3826352,15.7068063 L38.4840346,15.7068063 L38.4840346,23.5602094 L33.9361385,23.5602094 L33.9361385,31.4136126 L26.0830231,31.4136126 L26.0830231,23.5602094 L21.535127,23.5602094 L21.535127,15.7068063 L17.6365264,15.7068063 L17.6365264,7.85340314 L15.7153403,7.85340314 L15.7153403,15.7068063 L11.8170538,15.7068063 L11.8170538,23.5602094 L3.96393849,23.5602094 L3.96393849,15.7068063 L7.86222494,15.7068063 L7.86222494,7.85340314 L12.7493757,7.85340314 L12.7493757,0 L20.602491,0 L20.602491,7.85340314 L25.4896417,7.85340314 L25.4896417,15.7068063 L29.3882423,15.7068063 L29.3882423,23.5602094 L30.6309193,23.5602094 Z" id="å½¢çŠ¶ç»“åˆ" fill="#DE0429"></path>
            </g>
        </g>
    </g>
</svg>