<?xml version="1.0" encoding="UTF-8"?>
<svg width="81px" height="48px" viewBox="0 0 81 48" version="1.1" xmlns="http://www.w3.org/2000/svg" xmlns:xlink="http://www.w3.org/1999/xlink">
    <defs>
        <linearGradient x1="53.6679313%" y1="9.65344562%" x2="16.8542307%" y2="121.19514%" id="linearGradient-1">
            <stop stop-color="#840820" offset="0%"></stop>
            <stop stop-color="#CF1329" offset="100%"></stop>
        </linearGradient>
        <linearGradient x1="250.614652%" y1="-581.312532%" x2="9.0607492%" y2="178.838395%" id="linearGradient-2">
            <stop stop-color="#840820" offset="0%"></stop>
            <stop stop-color="#CF1329" offset="100%"></stop>
        </linearGradient>
        <linearGradient x1="332.537897%" y1="-743.758974%" x2="-48.8834549%" y2="327.718684%" id="linearGradient-3">
            <stop stop-color="#840820" offset="0%"></stop>
            <stop stop-color="#CF1329" offset="100%"></stop>
        </linearGradient>
        <linearGradient x1="286.932679%" y1="-582.317038%" x2="21.0646769%" y2="127.222203%" id="linearGradient-4">
            <stop stop-color="#840820" offset="0%"></stop>
            <stop stop-color="#CF1329" offset="100%"></stop>
        </linearGradient>
        <linearGradient x1="311.88589%" y1="-648.748697%" x2="45.9799352%" y2="60.7196597%" id="linearGradient-5">
            <stop stop-color="#840820" offset="0%"></stop>
            <stop stop-color="#CF1329" offset="100%"></stop>
        </linearGradient>
        <linearGradient x1="389.599321%" y1="-768.105389%" x2="-2.45751381%" y2="176.298658%" id="linearGradient-6">
            <stop stop-color="#840820" offset="0%"></stop>
            <stop stop-color="#CF1329" offset="100%"></stop>
        </linearGradient>
        <linearGradient x1="69.2142196%" y1="-0.118377291%" x2="29.7013604%" y2="115.861629%" id="linearGradient-7">
            <stop stop-color="#840820" offset="0%"></stop>
            <stop stop-color="#CF1329" offset="100%"></stop>
        </linearGradient>
        <linearGradient x1="66.9296999%" y1="117.305916%" x2="30.8395071%" y2="-26.981016%" id="linearGradient-8">
            <stop stop-color="#840820" offset="0%"></stop>
            <stop stop-color="#CF1329" offset="100%"></stop>
        </linearGradient>
    </defs>
    <g stroke="none" stroke-width="1" fill="none" fill-rule="evenodd">
        <g transform="translate(0.764741, 0.000000)">
            <rect x="0" y="0" width="80" height="48"></rect>
            <g transform="translate(0.000000, 9.000000)" fill-rule="nonzero">
                <g>
                    <g transform="translate(20.514122, 0.000000)" id="路径">
                        <path d="M12.7056409,8.63854836 L16.9601098,0 L1.82320858,6.91310687 L5.82331659,7.54819895 L2.81959029,13.6447589 L2.81959029,13.6447589 L0.817106084,17.7096722 C0.655092799,18.0401793 0.789563826,18.438732 1.12007093,18.6007453 C1.45057803,18.7627585 1.84913071,18.6282875 2.011144,18.2977804 L3.46926356,15.3377977 C3.63127685,15.0072906 4.03144966,14.8728196 4.36033663,15.0348329 C4.69084373,15.1968461 4.82531476,15.597019 4.66330147,15.9259059 L2.41293694,20.4930604 C2.25092366,20.8235675 2.38539468,21.2221202 2.71590179,21.3841335 L2.71590179,21.3841335 C3.04640889,21.5461468 3.44496157,21.4116758 3.60697485,21.0811687 L5.65806304,16.9158071 C5.82007633,16.5853 6.22024914,16.450829 6.54913611,16.6128423 C6.87964321,16.7748555 7.01411424,17.1750284 6.85210095,17.5039153 L4.94034419,21.3841335 C4.7783309,21.7146406 4.91280193,22.1131933 5.24330903,22.2752066 C5.57381613,22.4372199 5.97236882,22.3027488 6.1343821,21.9722417 L9.50587856,15.1288006 L9.49453763,15.1239402 L12.6894396,8.63692823 L12.7056409,8.63854836 Z" fill="url(#linearGradient-1)"></path>
                        <path d="M3.71876402,22.365934 C3.38825692,22.2039207 2.98970424,22.3383917 2.82769095,22.6688988 L1.8685723,24.6162985 C1.70655902,24.9468056 1.84103005,25.3453583 2.17153715,25.5073716 C2.50204425,25.6693849 2.90059693,25.5349139 3.06261022,25.2044068 L4.02172886,23.2570071 C4.18374215,22.9265 4.04927112,22.5279473 3.71876402,22.365934 Z" fill="url(#linearGradient-2)"></path>
                        <path d="M1.4489579,19.2180159 C1.11845079,19.0560026 0.719898113,19.1904736 0.557884828,19.5209807 L0.0686047072,20.5157423 C-0.0934085779,20.8462494 0.0410624487,21.2448021 0.37156955,21.4068154 C0.702076652,21.5688286 1.10062933,21.4343576 1.26264262,21.1038505 L1.75192274,20.1090889 C1.91393602,19.780202 1.77784486,19.3816493 1.4489579,19.2180159 Z" fill="url(#linearGradient-3)"></path>
                    </g>
                    <g transform="translate(0.000000, 6.846533)" id="路径">
                        <path d="M1.26264262,20.0201303 L2.011144,18.4988256 C2.17315728,18.1683185 2.03868625,17.7697658 1.70817915,17.6077525 C1.37767205,17.4457392 0.979119369,17.5802103 0.817106084,17.9107174 L0.0686047072,19.4320221 C-0.0934085779,19.7625292 0.0410624487,20.1610819 0.37156955,20.3230952 C0.702076652,20.4851085 1.10062933,20.3490173 1.26264262,20.0201303 Z" fill="url(#linearGradient-4)"></path>
                        <path d="M2.41455708,20.3684589 C2.08404997,20.2064456 1.68549729,20.3409166 1.52348401,20.6714237 L0.77498263,22.1927285 C0.612969345,22.5232356 0.747440372,22.9217883 1.07794747,23.0838016 C1.40845457,23.2458148 1.80700726,23.1113438 1.96902054,22.7808367 L2.71752192,21.259532 C2.88115534,20.930645 2.74506418,20.5304722 2.41455708,20.3684589 Z" fill="url(#linearGradient-5)"></path>
                        <path d="M4.77347051,18.9897258 C4.4429634,18.8277126 4.04441072,18.9621836 3.88239744,19.2926907 L3.48222462,20.1043772 C3.32021134,20.4348843 3.45468237,20.833437 3.78518947,20.9954503 C4.11569657,21.1574636 4.51424925,21.0229926 4.67626254,20.6924855 L5.07643535,19.8807989 C5.23844863,19.5502918 5.10235747,19.1517391 4.77347051,18.9897258 Z" fill="url(#linearGradient-6)"></path>
                        <path d="M7.352722,2.32827961 L3.38987705,10.3706191 L0.838167811,15.5518039 C0.676154526,15.882311 0.810625553,16.2808637 1.14113265,16.442877 C1.47163976,16.6048903 1.87019244,16.4704193 2.03220572,16.1399122 L3.49032529,13.1799294 C3.65233857,12.8494223 4.05251139,12.7149513 4.38139836,12.8769646 C4.71190546,13.0389779 4.84637648,13.4391507 4.6843632,13.7680377 L2.75964537,17.674178 C2.59763209,18.0046851 2.73210311,18.4032378 3.06261022,18.565251 C3.39311732,18.7272643 3.79167,18.5927933 3.95368328,18.2622862 L6.22996994,13.6416673 C6.39198322,13.3111602 6.79215604,13.1766892 7.12104301,13.3387025 C7.45155011,13.5007157 7.58602114,13.9008886 7.42400785,14.2297755 L5.51225109,18.1099937 C5.3502378,18.4405008 5.48470883,18.8390535 5.81521593,19.0010668 C6.14572303,19.1630801 6.54427571,19.028609 6.706289,18.6981019 L10.0777855,11.8546608 L10.0664445,11.8498004 L12.3378708,7.23890228 L12.0770294,5.02904107 C11.4305964,-0.459969029 7.352722,2.32827961 7.352722,2.32827961 Z" fill="url(#linearGradient-7)"></path>
                        <path d="M20.0950669,16.2679027 L18.6774506,4.2513773 C18.6774506,4.2513773 18.4085086,2.71873162 16.877483,1.52469371 C15.3302562,0.317694739 10.474718,-1.5486983 7.35434214,2.32827961 C7.35434214,2.32827961 11.4322165,-0.459969029 12.0802697,5.0306612 L12.3411111,7.24052241 L13.510847,17.1670764 C13.510847,17.1670764 13.8348735,18.6883811 15.4080225,19.8273345 C16.9973729,20.9776289 21.9160962,22.6690476 24.8971406,18.6835207 C24.8955205,18.6835207 20.9780393,21.5722176 20.0950669,16.2679027 Z" fill="url(#linearGradient-8)"></path>
                    </g>
                </g>
                <g transform="translate(36.732211, 5.046714)" fill="#CF1329">
                    <g>
                        <path d="M18.5310795,16.9676513 L18.670411,15.1125992 C19.4934385,15.0056705 19.9486958,14.3835395 20.0329427,13.2478263 L20.7506616,3.63071772 C20.8883728,1.79186693 21.9803424,0.873251607 24.0298104,0.873251607 L28.9550143,0.873251607 L29.0198196,0 L30.9315764,0 L30.8667711,0.873251607 L36.4708106,0.873251607 C37.9370308,0.873251607 38.6288276,1.43543771 38.5445807,2.55818977 L38.3193822,5.56677648 C38.280499,6.08845925 38.0844629,6.50321326 37.7328941,6.81103851 C37.3586434,7.13182481 36.8256197,7.29221796 36.133823,7.29221796 L22.3869957,7.29221796 L21.9576605,13.04855 C21.8458714,14.5390722 21.2966463,15.6488632 20.3116056,16.377923 C19.8190852,16.7375925 19.2261165,16.9352487 18.5310795,16.9676513 Z M22.5279473,5.43554571 L35.8632608,5.43554571 C36.0285143,5.43554571 36.1613652,5.38856186 36.2650537,5.29459416 C36.389804,5.18118486 36.4562294,5.06453529 36.4659502,4.94302533 L36.5923206,3.25808716 C36.6166226,2.9243398 36.451369,2.75584598 36.0949398,2.75584598 L23.9520441,2.75584598 C23.5745531,2.75584598 23.2732084,2.84657342 23.0480099,3.02640817 C22.8066101,3.22082411 22.6753794,3.47842523 22.6510774,3.79921154 L22.5279473,5.43554571 Z M22.8568343,15.2033267 L23.2246044,10.2700221 C23.2715883,9.6414106 23.5534914,9.16671167 24.0719339,8.84592537 C24.3959605,8.64502889 24.8382567,8.54458066 25.4004428,8.54458066 L35.8259977,8.54458066 C36.3266188,8.54458066 36.683048,8.58508398 36.8969055,8.66447049 C37.6518875,8.93179241 37.9953556,9.51017983 37.9289302,10.3996328 L37.6178647,14.5714749 C37.5562996,15.3945023 37.4299293,15.9323865 37.2403737,16.1867473 C37.0135551,16.4816115 36.7786358,16.6873684 36.5356159,16.8088783 C36.3006967,16.9222876 35.9604688,16.9789923 35.5149322,16.9789923 L24.7718313,16.9789923 C24.3262948,16.9789923 24.0006481,16.9433494 23.793271,16.8736836 C23.585894,16.8040179 23.4011989,16.671167 23.2375655,16.4767511 C22.9475617,16.1154615 22.8211913,15.6909867 22.8568343,15.2033267 Z M25.4344656,15.12232 L34.8928012,15.12232 C35.1666037,15.12232 35.3512988,15.0882972 35.4452665,15.0218718 C35.597559,14.914943 35.6818059,14.7415888 35.6996274,14.500189 L35.963709,10.9699195 C35.9928714,10.5891883 35.8000756,10.3980126 35.390182,10.3980126 L25.7876546,10.3980126 C25.3421181,10.3980126 25.1055787,10.5891883 25.0764163,10.9699195 L24.8123346,14.500189 C24.7815521,14.9165632 24.9889291,15.12232 25.4344656,15.12232 Z" id="形状"></path>
                        <g>
                            <path d="M14.2182859,14.2960523 L17.8959875,14.2960523 L17.9786142,13.1911217 L14.1939839,13.1911217 L14.2636496,12.2644057 L18.04828,12.2644057 L18.1309067,11.1594751 L14.3462764,11.1594751 L14.4159421,10.2327591 L15.9210455,10.2327591 L16.6420046,10.2327591 L17.3338014,10.2327591 C17.7080521,10.2327591 18.0336988,9.92979424 18.061241,9.55554355 L18.3075012,6.2537128 C18.3350435,5.87946212 18.0547605,5.57649727 17.6805098,5.57649727 L16.9887131,5.57649727 L16.267754,5.57649727 L3.15115839,5.57649727 L2.8109305,5.57649727 L1.74002268,5.57649727 C1.36577199,5.57649727 1.04012529,5.87946212 1.01258303,6.2537128 L0.766322838,9.55554355 C0.73878058,9.92979424 1.01906356,10.2327591 1.39169412,10.2327591 L2.46260193,10.2327591 L2.80282983,10.2327591 L4.30793325,10.2327591 L4.23826754,11.1594751 L0.453637198,11.1594751 L0.371010423,12.2644057 L4.15564076,12.2644057 L4.08597505,13.1911217 L0.30134471,13.1911217 L0.218717935,14.2960523 L3.89641951,14.2960523 C3.63557812,14.8744397 2.85629422,15.475509 1.80806826,15.6440028 C1.26694389,15.73149 0.821407355,15.7752336 0.0891073068,15.793055 L0,16.9789923 C1.16487552,16.9789923 2.1353351,16.8979856 3.05719069,16.7230113 C4.58983637,16.4313874 5.76929308,15.5030513 6.23265108,14.2976724 L11.8771939,14.2976724 C12.1607172,15.5030513 13.2024626,16.4313874 14.6913647,16.7230113 C15.5872982,16.8979856 16.5464168,16.9789923 17.7096722,16.9789923 L17.7987795,15.793055 C17.0680996,15.7768537 16.6290436,15.73149 16.1025004,15.6440028 C15.0818167,15.475509 14.3932602,14.8760598 14.2182859,14.2960523 Z M10.4854998,9.18453313 L10.5503051,8.32100232 L16.0652373,8.32100232 L16.000432,9.18453313 L10.4854998,9.18453313 Z M16.1268024,7.48501377 L10.6118702,7.48501377 L10.6766755,6.62148296 L16.1916077,6.62148296 L16.1268024,7.48501377 Z M8.58832424,6.62148296 L8.52351893,7.48501377 L3.0085867,7.48501377 L3.07339202,6.62148296 L8.58832424,6.62148296 Z M2.94702166,8.32100232 L8.46195388,8.32100232 L8.39714857,9.18453313 L2.88221634,9.18453313 L2.94702166,8.32100232 Z M6.67818761,10.231139 L12.0456877,10.231139 L11.976022,11.1578549 L6.61014203,11.1578549 L6.67818761,10.231139 Z M6.52751526,12.2627855 L11.8950154,12.2627855 L11.8253497,13.1895015 L6.45784954,13.1895015 L6.52751526,12.2627855 Z" id="形状"></path>
                            <path d="M7.69725117,4.75346978 L7.90300805,4.75346978 C8.69039261,4.75346978 9.37732894,4.11513744 9.43565372,3.32775288 L9.57822541,1.42571691 C9.6365502,0.638332343 9.04682184,0 8.25943727,0 L8.0536804,0 L7.59680294,0 L1.3317492,0 L1.25236269,1.05956688 L7.11076308,1.05956688 C7.33596155,1.05956688 7.50445537,1.2426419 7.4866339,1.46622023 L7.44937085,1.95874062 L1.56018794,1.95874062 L1.49700275,2.79472917 L7.38618567,2.79472917 L7.34892261,3.28724955 C7.33272128,3.51244802 7.13668521,3.6939029 6.91148674,3.6939029 L1.05308635,3.6939029 L0.973699843,4.75346978 L7.23875358,4.75346978 L7.69725117,4.75346978 L7.69725117,4.75346978 Z" id="路径"></path>
                            <path d="M16.9352487,4.75346978 L17.1410056,4.75346978 C17.9283901,4.75346978 18.6137063,4.11513744 18.6736512,3.32775288 L18.8162229,1.42571691 C18.8745477,0.638332343 18.2848194,0 17.4974348,0 L17.2916779,0 L16.8348005,0 L10.5697467,0 L10.4903602,1.05956688 L16.3487606,1.05956688 C16.5739591,1.05956688 16.7424529,1.2426419 16.7246314,1.46622023 L16.6873684,1.95874062 L10.7981855,1.95874062 L10.7350003,2.79472917 L16.6241832,2.79472917 L16.5869201,3.28724955 C16.5707188,3.51244802 16.3746827,3.6939029 16.1494843,3.6939029 L10.2910839,3.6939029 L10.2116974,4.75346978 L16.4767511,4.75346978 L16.9352487,4.75346978 L16.9352487,4.75346978 Z" id="路径"></path>
                        </g>
                    </g>
                    <g transform="translate(0.580008, 18.923152)">
                        <polygon id="路径" points="0 0.511961981 0.767942971 0.511961981 1.48566182 5.12772047 1.53426581 5.12772047 2.98428471 1.14705406 3.86725712 1.14705406 4.72268726 5.12772047 4.77129125 5.12772047 6.1694659 0.511961981 6.91310687 0.511961981 5.158503 5.95074796 4.22692661 5.95074796 3.37473673 1.92309769 3.32613274 1.92309769 1.84857158 5.95074796 0.916995194 5.95074796"></polygon>
                        <path d="M7.69887131,1.71896095 L8.40200896,1.71896095 L8.08608306,5.95074796 L7.3829454,5.95074796 L7.69887131,1.71896095 Z M8.11524545,0.942917319 C7.95647243,0.942917319 7.84792353,0.918615326 7.78959875,0.871631474 C7.72965383,0.824647621 7.70697197,0.714478587 7.71993303,0.542744505 C7.7328941,0.364529891 7.77339742,0.254360858 7.83820273,0.208997138 C7.90462818,0.165253551 8.01641735,0.142571691 8.17357023,0.142571691 C8.32100232,0.142571691 8.42469082,0.165253551 8.48787601,0.208997138 C8.54944105,0.252740725 8.57374305,0.364529891 8.56078198,0.542744505 C8.54782092,0.714478587 8.5073176,0.824647621 8.43765189,0.871631474 C8.37122644,0.920235459 8.26267754,0.942917319 8.11524545,0.942917319 Z" id="形状"></path>
                        <path d="M10.901874,5.43392558 C11.0007021,5.43392558 11.0865691,5.43068532 11.1594751,5.42258465 C11.2340012,5.41448399 11.3085273,5.40314306 11.3862937,5.38694173 L11.3441702,5.95884863 C11.256683,5.96856942 11.1740563,5.97829022 11.0962899,5.98639088 C11.0201437,5.99449155 10.9342766,5.99773181 10.841929,5.99773181 C10.597289,5.99773181 10.3915321,5.98153049 10.2278987,5.9475077 C10.0642653,5.91348491 9.93303451,5.84705946 9.8342064,5.74823135 C9.7353783,5.64940325 9.66895285,5.51169196 9.6365502,5.33671761 C9.60252741,5.16174326 9.59604688,4.9365448 9.6171086,4.65950208 L9.79370308,2.28438732 L9.13916941,2.28438732 L9.18129287,1.72058109 L9.83582654,1.72058109 L9.91035265,0.717718853 L10.6134903,0.717718853 L10.5389642,1.72058109 L11.634174,1.72058109 L11.5920505,2.28438732 L10.4968407,2.28438732 L10.3218664,4.62061889 C10.3089053,4.78749257 10.3072852,4.92358373 10.3153859,5.02889237 C10.3234865,5.134201 10.3494087,5.21520765 10.3915321,5.27515256 C10.4336556,5.33509748 10.4936005,5.37722093 10.5746071,5.39990279 C10.6572339,5.42258465 10.7657828,5.43392558 10.901874,5.43392558 Z" id="路径"></path>
                        <path d="M14.6573419,6.02851434 C14.2425879,6.02851434 13.8764379,5.98963115 13.5540314,5.91024464 C13.2332451,5.83247826 12.9659232,5.68990657 12.7520657,5.48252957 C12.5382081,5.2767727 12.3842955,4.99162931 12.2887077,4.62871956 C12.1931198,4.2658098 12.1671977,3.79921154 12.2093212,3.2305449 C12.2482044,2.70886213 12.3437922,2.26818599 12.4960847,1.91013663 C12.6483772,1.55208727 12.8492736,1.26370362 13.1003942,1.04498569 C13.3515148,0.826267754 13.6496193,0.669114867 13.9979478,0.575147162 C14.3446563,0.481179457 14.731868,0.434195604 15.1563428,0.434195604 C15.2875736,0.434195604 15.4220446,0.439056003 15.5597559,0.450396933 C15.6974672,0.46011773 15.8319382,0.474698925 15.9615488,0.49414052 C16.0911595,0.511961981 16.2126694,0.534643841 16.3276989,0.560565966 C16.4427283,0.586488092 16.5399363,0.615650483 16.6193228,0.646433008 L16.5723389,1.27342442 C16.3876438,1.20051844 16.1754064,1.14543393 15.9356267,1.10817087 C15.6958471,1.07252795 15.4317654,1.05308635 15.1433818,1.05308635 C14.8274559,1.05308635 14.5423125,1.08386888 14.2911919,1.14705406 C14.0384512,1.21023924 13.8197332,1.32202841 13.6366582,1.48404169 C13.4535832,1.64605498 13.3061511,1.86801318 13.1943619,2.14991629 C13.0841929,2.43181941 13.0112869,2.79310903 12.9788843,3.23216504 C12.9448615,3.69714317 12.9578225,4.07139385 13.0210077,4.35653724 C13.0841929,4.64168062 13.1943619,4.86201869 13.3515148,5.01917157 C13.5086677,5.17632446 13.7063239,5.28163309 13.9444834,5.33671761 C14.182643,5.39180213 14.462926,5.41934439 14.7837123,5.41934439 C14.914943,5.41934439 15.0688556,5.41124372 15.2470703,5.39504239 C15.4252849,5.37884106 15.5808176,5.35291894 15.7152887,5.31727602 L15.841659,3.63233785 L14.7059459,3.63233785 L14.7496895,3.03612896 L16.5885403,3.03612896 L16.3811633,5.80331587 C16.1689259,5.86650105 15.9194254,5.91996544 15.6294216,5.96370902 C15.3426581,6.00745261 15.0170114,6.02851434 14.6573419,6.02851434 Z" id="路径"></path>
                        <path d="M19.7510396,1.64119458 C20.0993681,1.64119458 20.3845115,1.67359723 20.6064697,1.73840255 C20.8284279,1.80320786 21.000162,1.8939353 21.1265324,2.00896474 C21.2512826,2.12399417 21.3339094,2.26170546 21.3727926,2.42371874 C21.4116758,2.58573203 21.4246368,2.76070638 21.4116758,2.94864179 L21.1880974,5.95074796 L20.5918885,5.95074796 L20.5335638,5.30755522 C20.4590376,5.42258465 20.3650699,5.52465302 20.2500405,5.61376033 C20.1350111,5.70286764 20.0054004,5.77901388 19.8612086,5.84057893 C19.7170168,5.90376411 19.5631042,5.95074796 19.3962305,5.98153049 C19.2309769,6.01231301 19.0657234,6.02851434 18.90209,6.02851434 C18.3739267,6.02851434 17.9964357,5.9183453 17.7712372,5.69962737 C17.5444186,5.48090943 17.4472107,5.16984393 17.4763731,4.76643085 C17.4958147,4.51531026 17.5525193,4.30469298 17.6497273,4.13133877 C17.7469352,3.95960469 17.8765459,3.82027326 18.036939,3.71658476 C18.1973322,3.61289626 18.3868877,3.53675001 18.6056057,3.48976616 C18.8243236,3.44278231 19.0641033,3.41848032 19.3265648,3.41848032 L20.6745153,3.41848032 L20.7004374,3.06529135 C20.7101582,2.94054112 20.7036777,2.82389156 20.6809958,2.71696279 C20.658314,2.61003402 20.6113301,2.51768645 20.5384242,2.44316034 C20.4655182,2.3670141 20.3585894,2.30868931 20.2208781,2.26656586 C20.0815467,2.2244424 19.9017119,2.20338068 19.6781336,2.20338068 C19.5307015,2.20338068 19.3719285,2.21148134 19.1985743,2.22768267 C19.0252201,2.243884 18.8599665,2.26656586 18.6995734,2.29896852 L18.743317,1.70275963 C18.9085705,1.6816979 19.0786845,1.6671167 19.2536588,1.65577577 C19.4253929,1.64605498 19.5922666,1.64119458 19.7510396,1.64119458 Z M19.0073986,5.46470811 C19.378409,5.46470811 19.6991953,5.39342226 19.9713777,5.24923044 C20.24356,5.10503861 20.4460766,4.90900254 20.5789275,4.65788195 L20.6307717,3.96122482 L19.3314252,3.96122482 C19.1515904,3.96122482 18.9928174,3.97094562 18.8551061,3.99200734 C18.7173948,4.01306907 18.6023654,4.05357239 18.511638,4.11351731 C18.4192904,4.17346222 18.3480045,4.256089 18.2961603,4.3597775 C18.244316,4.46508614 18.2135335,4.59793703 18.2005724,4.75995032 C18.182751,4.99486958 18.2345952,5.17146406 18.3577253,5.28811363 C18.4808554,5.40638332 18.6963331,5.46470811 19.0073986,5.46470811 Z" id="形状"></path>
                        <path d="M24.011989,5.43392558 C24.1108171,5.43392558 24.1966841,5.43068532 24.2695901,5.42258465 C24.3441162,5.41448399 24.4186423,5.40314306 24.4964087,5.38694173 L24.4542853,5.95884863 C24.3667981,5.96856942 24.2841713,5.97829022 24.2064049,5.98639088 C24.1302587,5.99449155 24.0443916,5.99773181 23.9520441,5.99773181 C23.707404,5.99773181 23.5016471,5.98153049 23.3380137,5.9475077 C23.1743803,5.91348491 23.0431495,5.84705946 22.9443214,5.74823135 C22.8454933,5.64940325 22.7790679,5.51169196 22.7466652,5.33671761 C22.7126424,5.16174326 22.7061619,4.9365448 22.7272236,4.65950208 L22.9038181,2.28438732 L22.2492844,2.28438732 L22.2914079,1.72058109 L22.9459416,1.72058109 L23.0204677,0.717718853 L23.7236053,0.717718853 L23.6490792,1.72058109 L24.744289,1.72058109 L24.7021656,2.28438732 L23.6069558,2.28438732 L23.4319814,4.62061889 C23.4190204,4.78749257 23.4174002,4.92358373 23.4255009,5.02889237 C23.4336016,5.134201 23.4595237,5.21520765 23.5016471,5.27515256 C23.5437706,5.33509748 23.6037155,5.37722093 23.6847221,5.39990279 C23.7673489,5.42258465 23.8758978,5.43392558 24.011989,5.43392558 Z" id="路径"></path>
                        <path d="M27.7107523,1.64119458 C27.9991359,1.64119458 28.2372955,1.67521737 28.4219906,1.74326295 C28.6066857,1.81130853 28.7508776,1.90689637 28.8545661,2.03002646 C28.9566344,2.15315656 29.02468,2.29734838 29.0587028,2.4658422 C29.0927256,2.63271588 29.1024464,2.81903116 29.0862451,3.02154777 L28.8675271,5.95236809 L28.1643895,5.95236809 L28.365286,3.27266836 C28.378247,3.11065507 28.3766269,2.96646325 28.365286,2.83847275 C28.3523249,2.71048226 28.3183021,2.60355349 28.2632176,2.51768645 C28.2065129,2.43181941 28.1238862,2.36539396 28.0169574,2.31841011 C27.9084085,2.27142626 27.7674569,2.24712426 27.5924826,2.24712426 C27.4499109,2.24712426 27.3121996,2.25684506 27.1777286,2.27466652 C27.0432575,2.29248798 26.9152671,2.33137117 26.792137,2.39293622 C26.670627,2.45288114 26.5572177,2.53874818 26.4551493,2.64729708 C26.3514608,2.75746611 26.2623535,2.90651833 26.1894475,3.09445375 L25.97559,5.95560836 L25.2724523,5.95560836 L25.7179889,0 L26.4211265,0 L26.2477723,2.32813091 C26.3239186,2.19203975 26.4178863,2.08025058 26.5296754,1.99114327 C26.6430847,1.90203597 26.7629746,1.83237025 26.8925852,1.78376627 C27.0221958,1.73354215 27.1566668,1.69951936 27.2976184,1.67845763 C27.43857,1.65739591 27.5746611,1.64119458 27.7107523,1.64119458 Z" id="路径"></path>
                        <path d="M33.9369228,3.41199978 C33.9320624,3.47032457 33.9239618,3.54161041 33.9077604,3.62747745 C33.8931792,3.71334449 33.8769779,3.80569207 33.8591565,3.9061403 L30.85381,4.08597505 C30.8359886,4.31603391 30.8457093,4.51531026 30.8829724,4.6854242 C30.9186153,4.85553815 30.988281,4.99486958 31.0887293,5.10503861 C31.1891775,5.21520765 31.3268888,5.29783442 31.5034833,5.35129881 C31.6784576,5.40638332 31.9004158,5.43392558 32.1677378,5.43392558 C32.4123778,5.43392558 32.6634984,5.40800346 32.9210995,5.35615921 C33.1787007,5.30431495 33.3941783,5.23788951 33.5691527,5.16012313 L33.5221688,5.77901388 C33.4541232,5.8097964 33.3666361,5.84219906 33.2613274,5.87298158 C33.1560188,5.90376411 33.036129,5.93130637 32.9032781,5.95560836 C32.7704272,5.97991035 32.6294756,5.99773181 32.4788033,6.01069288 C32.3281309,6.02365394 32.1742183,6.03013447 32.0154453,6.03013447 C31.6881784,6.03013447 31.4014149,5.99449155 31.1535346,5.92482584 C30.9056543,5.85353999 30.6998974,5.73365016 30.5395042,5.56353621 C30.377491,5.39342226 30.2624615,5.16984393 30.1927958,4.88956094 C30.1231301,4.61089809 30.1053086,4.25932926 30.1360912,3.83485446 C30.1668737,3.41037965 30.2381595,3.06043096 30.3499487,2.78014797 C30.4601177,2.50148512 30.6075498,2.27628666 30.792245,2.10617271 C30.9769401,1.93605876 31.195658,1.81616893 31.4483988,1.74488308 C31.7011395,1.67359723 31.9862829,1.63957445 32.3022088,1.63957445 C32.6780796,1.63957445 32.9778042,1.69303883 33.2013825,1.7999676 C33.4249608,1.90689637 33.5934547,2.04622779 33.7052438,2.21472161 C33.8186531,2.38483556 33.8883188,2.57601123 33.9158611,2.7866285 C33.9434034,2.99724577 33.9531242,3.20786304 33.9369228,3.41199978 Z M33.2418858,3.42010045 C33.2532268,3.25808716 33.2548469,3.10255441 33.243506,2.95350219 C33.232165,2.80444996 33.194902,2.67483934 33.1300967,2.56143004 C33.0652914,2.44964087 32.963223,2.36053356 32.8271318,2.29572825 C32.6910407,2.23092294 32.5014851,2.19852028 32.2617055,2.19852028 C32.0057245,2.19852028 31.7951072,2.2293028 31.6298536,2.29248798 C31.4646001,2.35567317 31.3301291,2.4464006 31.2296808,2.56629044 C31.1276125,2.68618027 31.0514662,2.83361236 31.0012421,3.00534644 C30.951018,3.17708052 30.9137549,3.37149646 30.8926932,3.585354 L33.2418858,3.42010045 Z" id="形状"></path>
                        <path d="M37.3959065,1.64119458 L37.3262408,2.25198466 L37.2274126,2.25198466 C37.084841,2.25198466 36.9455095,2.26494573 36.8077982,2.29086785 C36.6700869,2.31678998 36.5372361,2.36539396 36.4124858,2.43667981 C36.2877356,2.50796565 36.171086,2.60193336 36.0641573,2.72344332 C35.9572285,2.84333315 35.8665011,2.99724577 35.7919749,3.18518118 L35.5845979,5.95236809 L34.8814603,5.95236809 L35.1973862,1.72058109 L35.9005238,1.72058109 L35.8438192,2.48852406 C35.9280661,2.31030945 36.0252741,2.16773775 36.1370632,2.05756872 C36.2488524,1.94739969 36.3687422,1.86153265 36.499973,1.79834746 C36.6295836,1.73516228 36.7656748,1.69303883 36.9050062,1.67359723 C37.0443376,1.65415564 37.1820489,1.64281471 37.3116596,1.64281471 L37.3959065,1.64281471 L37.3959065,1.64119458 Z" id="路径"></path>
                    </g>
                </g>
            </g>
        </g>
    </g>
</svg>