<svg version="1.1" xmlns="http://www.w3.org/2000/svg" width="24" height="24" viewBox="0 0 24 24">
<path fill="#479ad9" d="M17.298 11.695c-0.404 0-0.766-0.282-0.853-0.692-0.169-0.799-0.16-1.583 0.41-3.020 0.062-0.156 0.134-0.317 0.211-0.487 0.144-0.319 0.307-0.68 0.387-1 0.259-1.031-0.010-1.642-0.319-1.852-0.292-0.198-0.724-0.132-1.155 0.178-0.283 0.204-0.616 0.69-0.937 1.159-0.75 1.094-1.777 2.594-3.486 2.165-0.981-0.245-1.572-1.058-2.093-1.775-0.149-0.205-0.289-0.398-0.435-0.575-1.097-1.337-1.517-1.471-1.949-1.253-0.837 0.423-0.446 2.234-0.217 2.81 0.178 0.448-0.041 0.956-0.489 1.134s-0.956-0.041-1.134-0.489c-0.412-1.038-1.027-3.963 1.053-5.014 1.9-0.959 3.322 0.773 4.086 1.704 0.178 0.217 0.341 0.441 0.498 0.657 0.38 0.523 0.739 1.016 1.104 1.107 0.494 0.124 0.963-0.497 1.621-1.458 0.407-0.594 0.827-1.207 1.358-1.59 1.036-0.745 2.245-0.824 3.156-0.205 1.037 0.704 1.432 2.13 1.032 3.722-0.118 0.472-0.316 0.908-0.49 1.294-0.067 0.147-0.13 0.286-0.18 0.412-0.454 1.144-0.419 1.573-0.325 2.013 0.1 0.472-0.201 0.936-0.673 1.036-0.061 0.013-0.122 0.019-0.182 0.019z"></path>
<path fill="#c7000b" d="M7.367 23.597c-0.457 0-0.922-0.12-1.372-0.415-1.781-1.165-0.992-3.263-0.568-4.391 0.099-0.263 0.211-0.515 0.32-0.759 0.263-0.59 0.511-1.148 0.407-1.51-0.14-0.49-0.912-0.585-2.073-0.675-0.717-0.055-1.459-0.112-2.056-0.381-1.163-0.524-1.837-1.532-1.756-2.631 0.091-1.249 1.129-2.305 2.708-2.755 0.468-0.133 0.944-0.181 1.365-0.223 0.161-0.016 0.312-0.031 0.446-0.050 1.218-0.179 1.572-0.424 1.906-0.725 0.359-0.323 0.911-0.294 1.233 0.065s0.294 0.911-0.065 1.233c-0.607 0.546-1.291 0.93-2.821 1.155-0.166 0.024-0.341 0.042-0.527 0.061-0.348 0.035-0.742 0.074-1.060 0.164-1.023 0.291-1.417 0.83-1.444 1.203-0.026 0.352 0.248 0.693 0.732 0.911 0.318 0.143 0.905 0.189 1.473 0.232 1.322 0.102 3.133 0.242 3.618 1.936 0.278 0.972-0.13 1.891-0.491 2.701-0.103 0.231-0.2 0.449-0.281 0.664-0.609 1.619-0.515 2.049-0.111 2.314 0.784 0.513 2.157-0.73 2.542-1.217 0.299-0.378 0.849-0.442 1.227-0.143s0.442 0.849 0.143 1.227c-0.533 0.674-1.973 2.009-3.497 2.009z"></path>
<path fill="#ff7303" d="M16.437 23.721c-0.877 0-1.819-0.421-2.638-1.215-0.349-0.338-0.629-0.728-0.876-1.072-0.094-0.131-0.183-0.255-0.267-0.361-0.764-0.966-1.153-1.149-1.581-1.288-0.459-0.149-0.71-0.642-0.56-1.101s0.642-0.709 1.101-0.56c0.777 0.253 1.451 0.653 2.41 1.866 0.104 0.131 0.207 0.274 0.315 0.426 0.204 0.284 0.436 0.606 0.673 0.836 0.764 0.74 1.427 0.813 1.764 0.65 0.318-0.154 0.476-0.561 0.423-1.089-0.035-0.347-0.289-0.878-0.535-1.392-0.573-1.196-1.357-2.835-0.133-4.101 0.703-0.727 1.702-0.832 2.584-0.925 0.252-0.027 0.489-0.052 0.715-0.089 1.707-0.282 2.033-0.579 2.060-1.061 0.052-0.936-1.711-1.503-2.325-1.593-0.477-0.070-0.807-0.514-0.737-0.991s0.512-0.807 0.991-0.737c1.105 0.162 3.945 1.093 3.815 3.419-0.119 2.125-2.33 2.49-3.519 2.687-0.277 0.046-0.552 0.075-0.817 0.103-0.643 0.068-1.25 0.132-1.511 0.402-0.354 0.366-0.051 1.082 0.452 2.133 0.311 0.649 0.632 1.32 0.698 1.971 0.128 1.27-0.409 2.356-1.4 2.836-0.344 0.167-0.717 0.248-1.101 0.248z"></path>
<path fill="#c7000b" d="M11.896 2.486l-0.833-0.833c-0.092-0.092-0.092-0.24 0-0.332l0.833-0.833c0.092-0.092 0.241-0.092 0.332 0l0.834 0.833c0.092 0.092 0.092 0.24 0 0.332l-0.834 0.833c-0.092 0.092-0.24 0.092-0.332 0z"></path>
<path fill="#c7000b" d="M12.35 3.132c0 0.095-0.102 0.707-0.185 1.188-0.020 0.117-0.188 0.117-0.208 0-0.083-0.481-0.184-1.093-0.184-1.188 0-0.159 0.129-0.289 0.289-0.289s0.289 0.129 0.289 0.289z"></path>
<path fill="#ff7303" d="M2.763 18.489l-0.305 1.138c-0.034 0.125-0.162 0.2-0.288 0.166l-1.139-0.305c-0.125-0.034-0.2-0.162-0.166-0.288l0.305-1.139c0.034-0.125 0.162-0.2 0.288-0.166l1.138 0.305c0.125 0.034 0.2 0.162 0.166 0.288z"></path>
<path fill="#ff7303" d="M3.095 17.772c0.082-0.047 0.663-0.265 1.121-0.434 0.111-0.041 0.195 0.104 0.104 0.18-0.376 0.312-0.855 0.707-0.937 0.754-0.138 0.080-0.314 0.032-0.394-0.106s-0.032-0.314 0.106-0.394z"></path>
<path fill="#479ad9" d="M21.188 18.397l1.138-0.305c0.125-0.034 0.254 0.041 0.288 0.166l0.305 1.138c0.034 0.125-0.041 0.254-0.166 0.288l-1.138 0.305c-0.125 0.034-0.254-0.041-0.288-0.166l-0.305-1.138c-0.034-0.125 0.041-0.254 0.166-0.288z"></path>
<path fill="#479ad9" d="M20.401 18.467c-0.082-0.047-0.561-0.442-0.937-0.754-0.091-0.076-0.007-0.221 0.104-0.18 0.458 0.169 1.039 0.387 1.121 0.434 0.138 0.080 0.185 0.256 0.106 0.394s-0.256 0.185-0.394 0.106z"></path>
</svg>
