<svg version="1.1" xmlns="http://www.w3.org/2000/svg" width="114" height="24" viewBox="0 0 114 24">
<path fill="#21a9fc" d="M15.818 11.472c-0.375 0-0.712-0.261-0.792-0.643-0.157-0.742-0.148-1.47 0.381-2.805 0.058-0.145 0.125-0.294 0.196-0.452 0.134-0.296 0.285-0.631 0.36-0.929 0.24-0.958-0.010-1.525-0.297-1.72-0.271-0.184-0.672-0.123-1.073 0.165-0.263 0.189-0.572 0.64-0.871 1.076-0.696 1.016-1.65 2.408-3.237 2.011-0.911-0.228-1.46-0.982-1.943-1.648-0.138-0.19-0.269-0.37-0.404-0.534-1.019-1.241-1.408-1.366-1.81-1.164-0.777 0.393-0.414 2.074-0.202 2.61 0.165 0.416-0.038 0.888-0.455 1.053s-0.887-0.038-1.053-0.455c-0.383-0.964-0.953-3.68 0.978-4.655 1.764-0.891 3.085 0.718 3.794 1.582 0.165 0.201 0.317 0.409 0.462 0.61 0.353 0.485 0.686 0.943 1.025 1.028 0.459 0.115 0.894-0.462 1.505-1.354 0.378-0.551 0.768-1.121 1.261-1.476 0.962-0.692 2.085-0.765 2.931-0.191 0.963 0.653 1.33 1.978 0.959 3.456-0.11 0.438-0.293 0.843-0.455 1.201-0.062 0.137-0.12 0.266-0.167 0.383-0.422 1.063-0.389 1.46-0.302 1.87 0.093 0.438-0.187 0.869-0.625 0.962-0.057 0.012-0.113 0.018-0.169 0.018z"></path>
<path fill="#c7000b" d="M6.597 22.524c-0.425 0-0.856-0.112-1.274-0.385-1.654-1.082-0.921-3.030-0.527-4.077 0.092-0.244 0.196-0.478 0.297-0.705 0.244-0.548 0.474-1.066 0.378-1.402-0.13-0.455-0.847-0.543-1.925-0.627-0.666-0.051-1.355-0.104-1.909-0.354-1.080-0.487-1.705-1.423-1.631-2.443 0.085-1.16 1.048-2.14 2.514-2.558 0.434-0.124 0.877-0.168 1.268-0.207 0.15-0.015 0.29-0.029 0.415-0.047 1.131-0.166 1.459-0.393 1.77-0.673 0.333-0.3 0.846-0.273 1.145 0.060s0.273 0.846-0.060 1.145c-0.564 0.507-1.199 0.864-2.62 1.072-0.154 0.023-0.317 0.039-0.489 0.056-0.323 0.032-0.689 0.069-0.984 0.153-0.95 0.27-1.316 0.771-1.341 1.117-0.024 0.327 0.23 0.644 0.679 0.846 0.296 0.133 0.84 0.175 1.367 0.216 1.228 0.095 2.91 0.225 3.36 1.798 0.258 0.903-0.121 1.756-0.456 2.508-0.096 0.215-0.186 0.417-0.261 0.617-0.565 1.503-0.478 1.903-0.103 2.149 0.728 0.476 2.003-0.678 2.361-1.13 0.278-0.351 0.788-0.41 1.139-0.133s0.411 0.788 0.133 1.139c-0.495 0.626-1.832 1.866-3.247 1.866z"></path>
<path fill="#ff7303" d="M15.019 22.638c-0.814 0-1.689-0.391-2.45-1.128-0.324-0.314-0.584-0.676-0.813-0.995-0.088-0.122-0.17-0.237-0.248-0.335-0.71-0.897-1.070-1.067-1.468-1.196-0.426-0.138-0.659-0.596-0.52-1.022s0.596-0.659 1.022-0.52c0.721 0.235 1.347 0.606 2.238 1.732 0.097 0.122 0.192 0.255 0.293 0.395 0.19 0.264 0.405 0.563 0.625 0.776 0.709 0.687 1.326 0.755 1.638 0.603 0.296-0.143 0.442-0.521 0.393-1.011-0.033-0.323-0.269-0.815-0.497-1.292-0.532-1.111-1.261-2.632-0.123-3.808 0.653-0.675 1.581-0.773 2.399-0.859 0.234-0.025 0.454-0.048 0.664-0.083 1.585-0.262 1.887-0.537 1.912-0.985 0.049-0.87-1.589-1.396-2.159-1.48-0.443-0.065-0.75-0.477-0.685-0.92s0.476-0.749 0.92-0.685c1.026 0.151 3.664 1.015 3.543 3.175-0.11 1.973-2.164 2.312-3.267 2.495-0.257 0.043-0.512 0.069-0.759 0.095-0.597 0.063-1.16 0.122-1.403 0.374-0.329 0.34-0.047 1.005 0.42 1.98 0.289 0.602 0.587 1.226 0.648 1.83 0.119 1.179-0.379 2.188-1.3 2.634-0.319 0.155-0.665 0.23-1.023 0.23z"></path>
<path fill="#c7000b" d="M10.802 2.92l-0.774-0.774c-0.085-0.085-0.085-0.223 0-0.309l0.774-0.774c0.085-0.085 0.223-0.085 0.309 0l0.774 0.774c0.085 0.085 0.085 0.223 0 0.309l-0.774 0.774c-0.085 0.085-0.223 0.085-0.309 0z"></path>
<path fill="#c7000b" d="M11.225 3.52c0 0.088-0.095 0.656-0.171 1.103-0.019 0.109-0.174 0.109-0.193 0-0.077-0.447-0.171-1.015-0.171-1.103 0-0.148 0.12-0.268 0.268-0.268s0.268 0.12 0.268 0.268z"></path>
<path fill="#ff7303" d="M2.322 17.78l-0.283 1.057c-0.031 0.116-0.151 0.185-0.267 0.154l-1.057-0.283c-0.116-0.031-0.185-0.151-0.154-0.267l0.283-1.057c0.031-0.116 0.151-0.185 0.267-0.154l1.057 0.283c0.116 0.031 0.185 0.151 0.154 0.267z"></path>
<path fill="#ff7303" d="M2.63 17.115c0.076-0.044 0.616-0.246 1.041-0.403 0.103-0.038 0.181 0.097 0.097 0.167-0.349 0.29-0.794 0.656-0.87 0.7-0.128 0.074-0.292 0.030-0.366-0.098s-0.030-0.292 0.098-0.366z"></path>
<path fill="#21a9fc" d="M19.431 17.695l1.057-0.283c0.116-0.031 0.236 0.038 0.267 0.154l0.283 1.057c0.031 0.116-0.038 0.236-0.154 0.267l-1.057 0.283c-0.116 0.031-0.236-0.038-0.267-0.154l-0.283-1.057c-0.031-0.116 0.038-0.236 0.154-0.267z"></path>
<path fill="#21a9fc" d="M18.7 17.76c-0.076-0.044-0.521-0.41-0.87-0.7-0.085-0.071-0.007-0.205 0.097-0.167 0.425 0.157 0.965 0.359 1.041 0.403 0.128 0.074 0.172 0.238 0.098 0.366s-0.238 0.172-0.366 0.098z"></path>
<path fill="#010604" d="M45.501 8.852c2.597 0 4.71 2.114 4.71 4.711s-2.113 4.709-4.71 4.709c-1.058 0-2.033-0.355-2.82-0.947v0 5.234c0 0.522-0.423 0.945-0.945 0.945s-0.945-0.423-0.945-0.945v0-8.996c0-2.596 2.113-4.711 4.71-4.711zM112.143 3.623c0.522 0 0.945 0.423 0.945 0.945v0 8.997c0 2.596-2.113 4.709-4.71 4.709s-4.71-2.113-4.71-4.709c0-2.599 2.113-4.711 4.71-4.711 1.059 0 2.033 0.355 2.82 0.947v0-5.233c0-0.522 0.423-0.945 0.945-0.945zM97.307 8.854c2.597 0 4.71 2.113 4.71 4.711v3.765c0 0.522-0.423 0.945-0.945 0.945s-0.945-0.423-0.945-0.945v-3.765c0-1.556-1.265-2.821-2.82-2.821s-2.82 1.265-2.82 2.821v3.765c0 0.522-0.423 0.945-0.945 0.945s-0.945-0.423-0.945-0.945v-3.765c0-2.599 2.113-4.711 4.71-4.711zM86.825 3.996c0.409 0.113 0.692 0.486 0.692 0.91v12.423c0 0.522-0.423 0.945-0.945 0.945s-0.945-0.423-0.945-0.945v-9.024l-4.415 7.327c-0.171 0.284-0.478 0.457-0.809 0.457s-0.638-0.173-0.809-0.457l-4.415-7.327v9.024c0 0.522-0.423 0.945-0.945 0.945s-0.945-0.423-0.945-0.945v-12.423c0-0.424 0.283-0.797 0.692-0.91 0.409-0.115 0.844 0.059 1.063 0.423l5.359 8.895 5.36-8.895c0.22-0.363 0.653-0.537 1.063-0.423zM90 8.852c0.522 0 0.945 0.423 0.945 0.945v0 7.533c0 0.522-0.423 0.945-0.945 0.945s-0.945-0.423-0.945-0.945v0-7.533c0-0.522 0.423-0.945 0.945-0.945zM34.709 8.851c2.601 0 4.709 2.108 4.709 4.709 0 2.605-2.109 4.714-4.709 4.714s-4.709-2.109-4.709-4.714c0-2.601 2.109-4.709 4.709-4.709zM67.065 8.852c2.597 0 4.71 2.114 4.71 4.711v3.765c0 0.522-0.423 0.945-0.945 0.945s-0.945-0.423-0.945-0.945v-3.765c0-1.556-1.265-2.821-2.82-2.821s-2.82 1.265-2.82 2.821v3.765c0 0.522-0.423 0.945-0.945 0.945s-0.945-0.423-0.945-0.945v-3.765c0-2.596 2.113-4.711 4.71-4.711zM56.294 8.852c2.399 0 4.411 1.795 4.68 4.175 0.042 0.377-0.078 0.754-0.331 1.036s-0.612 0.444-0.99 0.444h-6.029c0.031 0.1 0.068 0.199 0.11 0.297 0.247 0.59 0.725 1.068 1.311 1.316 1.55 0.652 2.826-0.020 3.449-0.793 0.327-0.407 0.922-0.47 1.329-0.143 0.407 0.325 0.471 0.921 0.144 1.326-0.916 1.14-2.268 1.755-3.684 1.755-0.656 0-1.325-0.132-1.971-0.405-1.039-0.436-1.884-1.283-2.321-2.323-0.656-1.565-0.518-3.234 0.378-4.579 0.876-1.319 2.343-2.106 3.925-2.106zM108.378 10.743c-1.555 0-2.82 1.265-2.82 2.821 0 1.554 1.265 2.82 2.82 2.82s2.82-1.266 2.82-2.82c0-1.556-1.265-2.821-2.82-2.821zM34.709 10.741c-1.558 0-2.82 1.265-2.82 2.819 0 1.558 1.262 2.824 2.82 2.824s2.82-1.266 2.82-2.824c0-1.554-1.262-2.819-2.82-2.819zM45.501 10.742c-1.555 0-2.82 1.265-2.82 2.821 0 1.554 1.265 2.82 2.82 2.82s2.82-1.266 2.82-2.82c0-1.556-1.265-2.821-2.82-2.821zM56.294 10.742c-0.947 0-1.826 0.471-2.351 1.26-0.129 0.195-0.231 0.401-0.307 0.616h5.318c-0.389-1.103-1.441-1.876-2.659-1.876z"></path>
<path fill="#c7000b" d="M89.728 7.896l-0.975-0.975c-0.15-0.151-0.15-0.395 0-0.545l0.975-0.975c0.15-0.15 0.394-0.15 0.545 0l0.975 0.975c0.151 0.15 0.151 0.394 0 0.545l-0.975 0.975c-0.151 0.151-0.395 0.151-0.545 0z"></path>
</svg>
