<?xml version="1.0" encoding="UTF-8"?>
<svg width="125px" height="30px" viewBox="0 0 125 30" version="1.1" xmlns="http://www.w3.org/2000/svg" xmlns:xlink="http://www.w3.org/1999/xlink">
    <title>logo</title>
    <g id="导航" stroke="none" stroke-width="1" fill="none" fill-rule="evenodd">
        <g id="bg" transform="translate(-252.000000, -355.000000)" fill-rule="nonzero">
            <g id="学习" transform="translate(0.000000, 338.000000)">
                <g id="ubm横版" transform="translate(252.000000, 17.000000)">
                    <path d="M48.1271965,15.05972 C47.0469573,15.0600972 45.9957827,15.4104873 45.1304739,16.05863 L45.1304739,15.2172659 C45.1304739,15.1302593 45.0601034,15.05972 44.9732971,15.05972 L43.0336316,15.05972 C42.9468252,15.05972 42.8764548,15.1302593 42.8764548,15.2172659 L42.8764548,28.1805067 C42.8764548,28.2675133 42.9468252,28.338046 43.0336316,28.338046 L44.9732971,28.338046 C45.0601034,28.338046 45.1304739,28.2675133 45.1304739,28.1805067 L45.1304739,24.1243003 C46.8805423,25.4345318 49.2749723,25.4603493 51.0527572,24.1881562 C52.8305422,22.9159631 53.5837327,20.6376904 52.9156674,18.5531713 C52.2476021,16.4686521 50.3115823,15.0562224 48.1271965,15.05972 L48.1271965,15.05972 Z M48.1271965,22.8016625 C46.6338153,22.7997503 45.424558,21.5851211 45.4258281,20.0882943 C45.4271002,18.5914674 46.6384186,17.3789032 48.131801,17.3795394 C49.6251833,17.3801761 50.8354739,18.5937721 50.8354739,20.0905996 C50.8350159,20.8100772 50.5494231,21.4999046 50.0415225,22.0083274 C49.533622,22.5167503 48.8450183,22.8021212 48.1271965,22.8016625 L48.1271965,22.8016625 Z" id="形状" fill="#000000"></path>
                    <path d="M61.0329671,21.9862658 C61.0174221,22.005309 61.0001499,22.0260834 60.9811505,22.0451267 C60.4748919,22.5416372 59.7892389,22.8109082 59.0812111,22.7912747 C58.3739886,22.8158291 57.6875225,22.5493663 57.1812716,22.0537827 C56.9645595,21.8393759 56.7915056,21.584782 56.6717424,21.3041722 C56.6174591,21.179327 56.5735538,21.0502023 56.5404739,20.9181141 C56.5331454,20.8991813 56.5331454,20.8781861 56.5404739,20.8592533 C56.5511182,20.8418217 56.5687425,20.8298348 56.588836,20.8263604 L63.9226022,20.8263604 C63.9226022,20.8263604 64.0659613,20.8263604 64.079779,20.7069075 C64.079779,20.7069075 64.1125962,20.419528 64.1125962,20.1269548 C64.108844,19.6715566 64.0508597,19.2182359 63.9398744,18.7766172 C63.8262625,18.3695419 63.6614285,17.9786126 63.4493446,17.6132495 C63.0070188,16.8397486 62.3627021,16.2017263 61.5856767,15.7677881 C60.807893,15.3203366 59.9261841,15.0862641 59.0293945,15.0891304 C56.2846014,15.1401102 54.0860935,17.3848798 54.0860935,20.1364764 C54.0860935,22.8880731 56.2846014,25.1328426 59.0293945,25.1837959 C59.9286343,25.1925375 60.8141642,24.9625809 61.59604,24.5172832 C62.2544714,24.1388854 62.8148037,23.6104717 63.2317152,22.9747822 C63.2382537,22.9649939 63.2399055,22.9527239 63.236189,22.9415487 C63.2324725,22.9303736 63.2238061,22.9215509 63.2127158,22.9176525 C62.9881775,22.8085868 62.7584575,22.7116394 62.5304648,22.6094985 L61.4267727,22.1143747 L61.1538723,21.9914594 C61.1262368,21.9741474 61.0761475,21.9377921 61.0329671,21.9862658 Z M57.1916349,18.2278262 C58.2653667,17.2402631 59.9133146,17.2365091 60.9915138,18.2191702 C61.1591859,18.3783743 61.2992744,18.5644197 61.4060461,18.7696924 C61.4257267,18.803654 61.4430402,18.8389393 61.4578626,18.8752957 C61.4803164,18.9497374 61.4250455,18.9497374 61.4250455,18.9497374 L56.7615577,18.9497374 C56.7615577,18.9497374 56.6941962,18.9497374 56.7270134,18.8822206 C56.7598305,18.8147037 56.7961021,18.7506492 56.8341009,18.6883259 C56.9332971,18.5202392 57.0534411,18.3654951 57.1916349,18.2278262 L57.1916349,18.2278262 Z" id="形状" fill="#000000"></path>
                    <path d="M69.371974,15.096046 C68.2611139,15.095163 67.1953876,15.5365876 66.409243,16.323247 C65.6230985,17.1099064 65.1809325,18.1773616 65.1800167,19.2907842 L65.1800167,24.9656645 C65.1800167,25.0612761 65.2573469,25.1387847 65.3527385,25.1387847 L67.4374902,25.1387847 C67.5328818,25.1387847 67.610212,25.0612761 67.610212,24.9656645 L67.610212,19.2907842 C67.610212,18.311721 68.4020729,17.5180334 69.3788829,17.5180334 C70.3556929,17.5180334 71.1475538,18.311721 71.1475538,19.2907842 L71.1475538,24.9656645 C71.1475538,25.0612761 71.224884,25.1387847 71.3202756,25.1387847 L73.4050273,25.1387847 C73.5004189,25.1387847 73.5777491,25.0612761 73.5777491,24.9656645 L73.5777491,19.2907842 C73.5768404,18.1749558 73.1327778,17.1053951 72.3436415,16.3183364 C71.5545052,15.5312776 70.4852253,15.09148 69.371974,15.096046 L69.371974,15.096046 Z" id="路径" fill="#000000"></path>
                    <path d="M80.0219982,25.2218836 C78.699044,25.222801 77.4299105,24.696928 76.4937928,23.7599494 C75.557675,22.8229709 75.031255,21.5516394 75.0303391,20.2256333 L75.0303391,12.6083444 C75.0312873,12.4971554 75.1214865,12.407525 75.2324236,12.407525 L77.7144354,12.407525 C77.8253725,12.407525 77.9155717,12.4971554 77.9165199,12.6083444 L77.9165199,20.2256333 C77.9165199,21.3911393 78.8591747,22.3359686 80.0219982,22.3359686 C81.1848218,22.3359686 82.1274766,21.3911393 82.1274766,20.2256333 L82.1274766,12.6083444 C82.1284248,12.4971554 82.218624,12.407525 82.3295611,12.407525 L84.8115729,12.407525 C84.92251,12.407525 85.0127092,12.4971554 85.0136573,12.6083444 L85.0136573,20.2256333 C85.0127415,21.5516394 84.4863215,22.8229709 83.5502037,23.7599494 C82.614086,24.696928 81.3449525,25.222801 80.0219982,25.2218836 Z" id="路径" fill="#000000"></path>
                    <path d="M36.6429262,15.092619 C34.606751,15.092619 32.7711686,16.3222903 31.992443,18.2080117 C31.2137175,20.0937331 31.6452798,22.2639652 33.0858144,23.7063364 C34.526349,25.1487076 36.6920297,25.5790297 38.572608,24.7965658 C40.4531863,24.0141019 41.6781348,22.1730196 41.6760412,20.1321484 C41.6741313,17.3476572 39.4210094,15.0916628 36.6429262,15.092619 L36.6429262,15.092619 Z M36.6429262,22.6735536 C35.2449353,22.6735536 34.1114625,21.537979 34.1108274,20.1367634 C34.1101928,18.7355478 35.2426361,17.5989437 36.6406264,17.5976686 C38.0386166,17.5963957 39.1731201,18.730934 39.1750326,20.1321484 C39.1764042,20.8059929 38.9101827,21.452686 38.4351225,21.9294917 C37.9600623,22.4062974 37.315221,22.6740144 36.6429262,22.6735536 L36.6429262,22.6735536 Z" id="形状" fill="#000000"></path>
                    <path d="M96.7587376,16.2455999 C96.7587376,17.4349357 96.1680291,18.1326101 95.3044203,18.5307865 C96.9262777,18.9358878 97.6689813,19.8897801 97.6689813,21.3924635 C97.6689813,23.9321369 95.7949501,25.2218824 93.1108538,25.2218824 L89.3869725,25.2218824 L87.0414109,25.2218824 C86.8926,25.2218824 86.7719649,25.100969 86.7719649,24.9518149 L86.7719649,12.6879797 C86.7729074,12.5382624 86.8937654,12.4171256 87.0431381,12.416181 L92.2006101,12.416181 C94.8847064,12.4179122 96.7587376,13.7059265 96.7587376,16.2455999 Z M89.3869725,15.2709331 L89.3869725,17.2202666 C89.3869725,17.3694208 89.5076076,17.4903341 89.6564185,17.4903341 C90.9501045,17.4903341 91.2281866,17.4903341 92.2351545,17.4903341 C93.8604663,17.4903341 94.1540933,16.7874661 94.1523736,16.2438687 C94.1506389,15.7002712 93.8604663,14.9939408 92.2006101,14.9939408 L89.6581457,14.9939408 C89.5853192,14.9939408 89.5155482,15.0232752 89.4645418,15.0753762 C89.4135354,15.1274772 89.3855809,15.197952 89.3869725,15.2709331 Z M89.3869503,20.2239021 L89.3869503,22.3671302 C89.3869503,22.5162844 89.5076076,22.6371978 89.6564185,22.6371978 L93.2127597,22.6371978 C94.8743431,22.6371978 95.0626098,21.9325985 95.0626098,21.3890011 C95.0626098,20.8454037 94.8726159,19.9469098 93.2490313,19.9469098 C92.1781563,19.9469098 91.4682698,19.9469098 89.6564185,19.9469098 C89.5840389,19.9478223 89.5149862,19.9775194 89.4644541,20.0294668 C89.4139219,20.0814142 89.3860505,20.1513558 89.3869503,20.2239021 L89.3869503,20.2239021 Z" id="形状" fill="#000000"></path>
                    <path d="M101.543131,12.5339027 L105.545094,19.5937446 L109.547057,12.5339027 C109.586281,12.4636535 109.66019,12.4199995 109.740506,12.4196297 L112.004888,12.4196297 C112.127943,12.4196297 112.227699,12.5196294 112.227699,12.6429684 L112.227699,24.9985573 C112.227699,25.1218964 112.127943,25.2218824 112.004888,25.2218824 L109.833775,25.2218824 C109.71072,25.2218824 109.610964,25.1218964 109.610964,24.9985573 L109.610964,17.7084656 L106.251526,23.6343701 C106.212698,23.7039431 106.139339,23.7470001 106.059805,23.7468983 L105.023474,23.7468983 C104.943518,23.7468955 104.869694,23.7039521 104.830026,23.6343701 L101.479224,17.7084656 L101.479224,24.9968261 C101.479224,25.1201652 101.379468,25.2201512 101.256412,25.2201512 L99.0852998,25.2201512 C99.0263642,25.220153 98.9698673,25.1965691 98.9283561,25.154637 C98.8868448,25.1127049 98.8637555,25.0558959 98.8642092,24.9968261 L98.8642092,12.6429684 C98.8637555,12.5838987 98.8868448,12.5270897 98.9283561,12.4851576 C98.9698673,12.4432255 99.0263642,12.4196297 99.0852998,12.4196297 L101.346228,12.4196297 C101.427779,12.41874 101.503306,12.4625671 101.543131,12.5339027 L101.543131,12.5339027 Z" id="路径" fill="#000000"></path>
                    <path d="M120.319714,12.4715794 C121.791303,12.4715794 123.722333,13.281782 124.862296,14.3378152 C124.950249,14.4220827 125,14.5387319 125,14.6606844 C125,14.7826369 124.950249,14.8992861 124.862296,14.9835536 L123.781058,16.0395868 C123.6141,16.2033965 123.349036,16.2094518 123.174805,16.0534364 C122.442465,15.3713428 121.24723,14.858907 120.312805,14.858907 L120.29726,14.858907 C118.875827,14.8616902 117.56385,15.624337 116.855538,16.8595656 C116.147226,18.0947943 116.150189,19.6149442 116.86331,20.8473896 C117.576432,22.079835 118.891372,22.8373381 120.312805,22.8345548 C121.24723,22.8345548 122.444192,22.3151942 123.174805,21.6400254 C123.348717,21.4831449 123.614458,21.4892157 123.781058,21.653875 L124.862296,22.7099082 C124.950249,22.7941757 125,22.9108249 125,23.0327774 C125,23.1547299 124.950249,23.2713792 124.862296,23.3556466 C123.722333,24.4116798 121.791303,25.2218824 120.319714,25.2218824 C116.761646,25.2218824 113.875465,22.365399 113.875465,18.8458653 C113.875465,15.3263316 116.761646,12.4715794 120.31626,12.4715794 L120.319714,12.4715794 Z" id="路径" fill="#000000"></path>
                    <path d="M0.274630671,17.9594899 L0.274630671,12.4404178 C0.274630671,10.6964613 1.68513296,9.28270529 3.42507572,9.28270529 C5.16501848,9.28270529 6.57552077,10.6964613 6.57552077,12.4404178 L6.57552077,17.9906515 C6.57552077,21.0843095 9.0402604,23.6516822 12.1285256,23.6828438 C13.6259683,23.6957752 15.0664924,23.1084704 16.1297534,22.0515347 C17.1930144,20.9945989 17.7908615,19.5556585 17.7903452,18.054706 L17.7903452,12.4404178 C17.7903452,10.6964613 19.2008475,9.28270529 20.9407902,9.28270529 C22.680733,9.28270529 24.0912353,10.6964613 24.0912353,12.4404178 L24.0912353,18.054706 C24.0912353,24.6505578 18.7575589,29.9980882 12.1768877,30 C5.6307327,30 0.274630671,24.5224768 0.274630671,17.9594899 Z" id="路径" fill="#418CFF"></path>
                    <rect id="矩形" fill="#418CFF" x="17.7903452" y="0" width="6.36306994" height="6.37774828" rx="3.18153497"></rect>
                    <path d="M3.59952471,0.0224989839 C1.60865195,0.0263283639 -0.00253541176,1.64639582 2.99530581e-06,3.64186316 C0.00254740716,5.63733051 1.61785612,7.25326975 3.60873212,7.25199869 C5.59960813,7.25072614 7.2128641,5.63272444 7.2128641,3.63725547 C7.2128641,2.6773632 6.83195549,1.75688644 6.15412357,1.07878993 C5.47629165,0.400693429 4.55720604,0.0206667523 3.59952471,0.0224989839 L3.59952471,0.0224989839 Z M3.59952471,5.4550176 C2.59791292,5.4550176 1.78594614,4.64117777 1.78594614,3.63725547 C1.78594614,2.63333316 2.59791292,1.81949333 3.59952471,1.81949333 C4.60113649,1.81949333 5.41310327,2.63333316 5.41310327,3.63725547 C5.41310327,4.64117777 4.60113649,5.4550176 3.59952471,5.4550176 L3.59952471,5.4550176 Z" id="形状" fill="#418CFF"></path>
                </g>
            </g>
        </g>
    </g>
</svg>