<svg version="1.1" xmlns="http://www.w3.org/2000/svg" width="37" height="32" viewBox="0 0 37 32">
  <defs>
        <rect id="path-1" x="0" y="0" width="228.888889" height="200"></rect>
        <linearGradient x1="49.999996%" y1="-1.11293853e-05%" x2="49.999996%" y2="60.7001447%" id="linearGradient-3">
            <stop stop-color="#01489F" stop-opacity="0.15" offset="0%"></stop>
            <stop stop-color="#01489F" stop-opacity="0" offset="100%"></stop>
        </linearGradient>
    </defs>
<path fill="url(#linearGradient-3)" d="M27.265 23.305c7.542 1.498 12.798 4.861 12.798 8.769h-43.2c0-3.909 5.256-7.272 12.798-8.769 0.237 0.457 0.714 0.769 1.264 0.769h15.076c0.547 0 1.022-0.309 1.26-0.762z"></path>
<path fill="#01489f" opacity="0.2" d="M27.425 14.159v8.498c0 0.785-0.637 1.422-1.422 1.422h-15.076c-0.785 0-1.422-0.637-1.422-1.422v-8.498h17.92zM21.345 16.879h-5.76c-0.353 0-0.64 0.287-0.64 0.64s0.287 0.64 0.64 0.64h5.76c0.353 0 0.64-0.287 0.64-0.64s-0.287-0.64-0.64-0.64z"></path>
<path fill="#01489f" opacity="0.25" d="M11.745 14.159h-2.24l2.24-5.12 0 5.12zM25.185 9.039l2.24 5.12h-2.24v-5.12z"></path>
<path fill="#01489f" opacity="0.304966" d="M11.745 9.039h13.44v5.12h-13.44v-5.12z"></path>
<path fill="#01489f" opacity="0.2" d="M16.339 6.154l1.006-0.476-3.68-2.239 0.383 3.54 1.055-0.441 0.767 0.902v-1.108l-1.63-2.135z"></path>
<path fill="#01489f" opacity="0.2" d="M30.3 20.133c-0.134 0.23-0.234 0.369-0.3 0.417-0.188 0.137-0.362 0.175-0.481 0.181-0.273 0.014 0.286-0.081 0.474-0.314 0.125-0.156 0.271-0.389 0.438-0.699l-0.152 0.008-0.156 0.219c-0.056-0.064-0.125-0.093-0.208-0.089-0.125 0.007-0.443 0.078-0.548 0.436-0.070 0.239-0.228 0.454-0.474 0.646 0.379 0.169 0.738 0.15 1.076-0.056s0.449-0.456 0.332-0.749z"></path>
<path fill="#01489f" opacity="0.2" d="M8.264 11.616c-0.227 0.401-0.397 0.644-0.51 0.729-0.319 0.24-0.615 0.306-0.817 0.316-0.464 0.024 0.486-0.141 0.805-0.549 0.213-0.272 0.46-0.679 0.742-1.223l-0.258 0.014-0.265 0.383c-0.095-0.111-0.213-0.163-0.354-0.156-0.212 0.011-0.753 0.135-0.931 0.762-0.118 0.418-0.386 0.794-0.804 1.129 0.645 0.297 1.254 0.265 1.829-0.096s0.762-0.797 0.563-1.31z"></path>
<path fill="#01489f" opacity="0.2" d="M32.354 16.319c0.044-0.002 0.082 0.032 0.084 0.076 0.053 1.127-0.544 1.994-1.778 2.592-0.040 0.019-0.088 0.003-0.107-0.037s-0.003-0.088 0.037-0.107c1.18-0.572 1.739-1.382 1.688-2.441-0.002-0.044 0.032-0.082 0.076-0.084z"></path>
</svg>
