<?xml version="1.0" encoding="UTF-8"?>
<svg width="48px" height="48px" viewBox="0 0 48 48" version="1.1" xmlns="http://www.w3.org/2000/svg" xmlns:xlink="http://www.w3.org/1999/xlink">
    <title>编组 3</title>
    <g id="登入页面" stroke="none" stroke-width="1" fill="none" fill-rule="evenodd">
        <g id="登入-重置密码" transform="translate(-936.000000, -313.000000)">
            <g id="号码未注册--弹窗" transform="translate(720.000000, 289.000000)">
                <g id="编组-3" transform="translate(216.000000, 24.000000)">
                    <rect id="矩形" x="0" y="0" width="48" height="48"></rect>
                    <g id="编组-11备份" transform="translate(8.000000, 4.000000)" fill="#418CFF" fill-rule="nonzero">
                        <g id="ubm横版">
                            <path d="M0.363848401,23.9459865 L0.363848401,16.5872237 C0.363848401,14.2619484 2.23257269,12.3769404 4.53776092,12.3769404 C6.84294914,12.3769404 8.71167343,14.2619484 8.71167343,16.5872237 L8.71167343,23.9875353 C8.71167343,28.1124127 11.9771192,31.5355762 16.0686519,31.5771251 C18.0525604,31.5943669 19.9610595,30.8112938 21.3697362,29.4020462 C22.7784128,27.9927986 23.5704792,26.0742114 23.5697951,24.0729413 L23.5697951,16.5872237 C23.5697951,14.2619484 25.4385194,12.3769404 27.7437076,12.3769404 C30.0488959,12.3769404 31.9176201,14.2619484 31.9176201,16.5872237 L31.9176201,24.0729413 C31.9176201,32.8674104 24.8512222,39.9974509 16.1327251,40 C7.45995734,40 0.363848401,32.6966357 0.363848401,23.9459865 Z" id="路径"></path>
                            <rect id="矩形" x="23.5697951" y="0" width="8.43020488" height="8.50366438" rx="4.21510244"></rect>
                            <path d="M4.76888217,0.0299986452 C2.13124571,0.0351044852 -0.0033590768,2.19519442 3.96837413e-06,4.85581755 C0.00337496907,7.51644068 2.14343998,9.67102633 4.78108075,9.66933159 C7.41872151,9.66763485 9.55606692,7.51029925 9.55606692,4.84967396 C9.55606692,3.5698176 9.05141466,2.34251525 8.15337928,1.43838658 C7.25534389,0.534257905 6.03768007,0.0275556698 4.76888217,0.0299986452 L4.76888217,0.0299986452 Z M4.76888217,7.2733568 C3.44188236,7.2733568 2.36613648,6.18823703 2.36613648,4.84967396 C2.36613648,3.51111088 3.44188236,2.42599111 4.76888217,2.42599111 C6.09588197,2.42599111 7.17162786,3.51111088 7.17162786,4.84967396 C7.17162786,6.18823703 6.09588197,7.2733568 4.76888217,7.2733568 L4.76888217,7.2733568 Z" id="形状"></path>
                        </g>
                    </g>
                </g>
            </g>
        </g>
    </g>
</svg>